<svg viewBox="0 0 50 50" fill="none" xmlns="http://www.w3.org/2000/svg">
<path d="M0 43.553C0 47.114 2.88643 50 6.44703 50H43.553C47.114 50 50 47.1136 50 43.553V6.44703C50 2.88604 47.1136 0 43.553 0H6.44703C2.88604 0 0 2.88643 0 6.44703V43.553Z" fill="#563D7C"/>
<path d="M20.7339 22.1168V15.0361H26.9667C27.5603 15.0361 28.1327 15.0855 28.6839 15.1845C29.2351 15.2834 29.7227 15.4601 30.1467 15.7145C30.5707 15.9689 30.9099 16.3222 31.1643 16.7744C31.4187 17.2267 31.5459 17.8062 31.5459 18.5128C31.5459 19.7848 31.1643 20.7035 30.4011 21.2688C29.6379 21.8342 28.6627 22.1168 27.4755 22.1168H20.7339ZM14.0771 9.86328V40.1367H28.7475C30.1043 40.1367 31.4257 39.9671 32.7119 39.6279C33.998 39.2887 35.1428 38.7658 36.1462 38.0591C37.1497 37.3525 37.9482 36.4409 38.5418 35.3243C39.1354 34.2078 39.4322 32.8864 39.4322 31.36C39.4322 29.4661 38.9729 27.8479 38.0542 26.5052C37.1356 25.1625 35.7434 24.2227 33.8778 23.6856C35.2346 23.0355 36.2593 22.2016 36.9518 21.184C37.6444 20.1664 37.9906 18.8944 37.9906 17.368C37.9906 15.9547 37.7574 14.7675 37.291 13.8065C36.8246 12.8454 36.1674 12.0751 35.3194 11.4957C34.4714 10.9162 33.4539 10.4993 32.2667 10.2449C31.0795 9.99048 29.7651 9.86328 28.3235 9.86328H14.0771ZM20.7339 34.9639V26.6536H27.9843C29.4259 26.6536 30.5848 26.9857 31.4611 27.65C32.3373 28.3143 32.7755 29.4237 32.7755 30.9784C32.7755 31.7698 32.6412 32.42 32.3727 32.9288C32.1041 33.4376 31.7437 33.8404 31.2915 34.1371C30.8392 34.434 30.3163 34.6459 29.7227 34.7731C29.1291 34.9003 28.5072 34.9639 27.8571 34.9639H20.7339Z" fill="white"/>
</svg>
