<svg viewBox="0 0 50 50" xmlns="http://www.w3.org/2000/svg">
<path d="M42.7082 5.20831H7.2915L10.4165 40.625L24.9998 44.7916L39.5832 40.625L42.7082 5.20831Z" fill="#0277BD"/>
<path d="M25 8.33331V41.5625L36.6667 38.2291L39.2708 8.33331H25Z" fill="#039BE5"/>
<path d="M34.4792 13.5417H25V17.7084H30.1042L29.7917 21.875H25V26.0417H29.5833L29.2708 30.7292L25 32.1875V36.5625L33.2292 33.8542L33.9583 21.875L34.4792 13.5417Z" fill="white" class="letterWhite"/>
<path d="M25.0003 13.5417V17.7084H15.7295L15.417 13.5417H25.0003ZM20.2087 21.875L20.417 26.0417H25.0003V21.875H20.2087ZM20.6253 28.125H16.4587L16.7712 33.8542L25.0003 36.5625V32.1875L20.7295 30.7292L20.6253 28.125Z" fill="#EEEEEE" class="letterWhite"/>
</svg>
