<svg viewBox="0 0 50 50" xmlns="http://www.w3.org/2000/svg">
<path d="M18.0557 45.8334C21.8891 45.8334 25.0002 42.7223 25.0002 38.889V31.9446H18.0557C14.2224 31.9446 11.1113 35.0557 11.1113 38.889C11.1113 42.7223 14.2224 45.8334 18.0557 45.8334Z" fill="#0ACF83"/>
<path d="M11.1113 25C11.1113 21.1667 14.2224 18.0555 18.0557 18.0555H25.0002V31.9444H18.0557C14.2224 31.9444 11.1113 28.8333 11.1113 25Z" fill="#A259FF"/>
<path d="M11.1113 11.1111C11.1113 7.27774 14.2224 4.16663 18.0557 4.16663H25.0002V18.0555H18.0557C14.2224 18.0555 11.1113 14.9444 11.1113 11.1111Z" fill="#F24E1E"/>
<path d="M25 4.16663H31.9444C35.7778 4.16663 38.8889 7.27774 38.8889 11.1111C38.8889 14.9444 35.7778 18.0555 31.9444 18.0555H25V4.16663Z" fill="#FF7262"/>
<path d="M38.8889 25C38.8889 28.8333 35.7778 31.9444 31.9444 31.9444C28.1111 31.9444 25 28.8333 25 25C25 21.1667 28.1111 18.0555 31.9444 18.0555C35.7778 18.0555 38.8889 21.1667 38.8889 25Z" fill="#1ABCFE"/>
</svg>
