<svg width="50" height="50" viewBox="0 0 50 50" fill="none" xmlns="http://www.w3.org/2000/svg">
<g clip-path="url(#clip0)">
<path d="M49.0574 22.7722L27.2267 0.943057C25.9704 -0.314352 23.9312 -0.314352 22.6732 0.943057L18.1401 5.47621L23.8906 11.2267C25.227 10.7752 26.7593 11.078 27.8246 12.1434C28.895 13.2154 29.1956 14.7608 28.7331 16.1016L34.2752 21.6437C35.616 21.1818 37.1631 21.4807 38.2339 22.5533C39.7305 24.0493 39.7305 26.4742 38.2339 27.9713C36.7368 29.4685 34.3119 29.4685 32.8142 27.9713C31.6885 26.8445 31.4104 25.191 31.9804 23.8041L26.8119 18.6357L26.8114 32.2368C27.1762 32.4178 27.5207 32.6586 27.8246 32.9615C29.3213 34.4575 29.3213 36.8824 27.8246 38.3806C26.3275 39.8772 23.9016 39.8772 22.4066 38.3806C20.91 36.8824 20.91 34.4575 22.4066 32.9615C22.7764 32.5923 23.2043 32.313 23.6607 32.1254V18.3976C23.2043 18.211 22.7769 17.9334 22.4066 17.5615C21.2726 16.4292 21 14.7652 21.5809 13.3729L15.9127 7.70355L0.943957 22.6712C-0.314001 23.9297 -0.314001 25.9689 0.943957 27.2263L22.7747 49.056C24.0316 50.3134 26.0702 50.3134 27.3287 49.056L49.0574 27.3278C50.3148 26.0699 50.3148 24.0296 49.0574 22.7722Z" fill="#DE4C36"/>
</g>
<defs>
<clipPath id="clip0">
<rect width="50" height="50" fill="white"/>
</clipPath>
</defs>
</svg>
