<svg width="50" height="50" viewBox="0 0 50 50" fill="none" xmlns="http://www.w3.org/2000/svg">
<path d="M42.7082 5.20831H7.2915L10.4165 40.625L24.9998 44.7916L39.5832 40.625L42.7082 5.20831Z" fill="#E65100"/>
<path d="M25 8.33331V41.5625L36.6667 38.2291L39.2708 8.33331H25Z" fill="#FF6D00"/>
<path d="M25 26.0417V21.875H33.9583L33.2292 33.8542L25 36.5625V32.1875L29.2708 30.7292L29.5833 26.0417H25ZM34.2708 17.7084L34.5833 13.5417H25V17.7084H34.2708Z" fill="white"/>
<path d="M25.0002 32.1875V36.5625L16.771 33.8542L16.3543 28.125H20.521L20.7293 30.7292L25.0002 32.1875ZM19.896 17.7084H25.0002V13.5417H15.521L16.2502 26.0417H25.0002V21.875H20.2085L19.896 17.7084Z" fill="#EEEEEE"/>
</svg>
