<svg width="30" height="30" viewBox="0 0 30 30" fill="none" xmlns="http://www.w3.org/2000/svg">
<path d="M21.7208 0H8.27869C3.71382 0 0 3.714 0 8.27887V21.721C0 26.286 3.71382 29.9998 8.27869 29.9998H21.7208C26.286 29.9998 29.9998 26.2858 29.9998 21.721V8.27887C30 3.714 26.286 0 21.7208 0ZM27.3383 21.721C27.3383 24.8183 24.8183 27.3381 21.721 27.3381H8.27869C5.1815 27.3383 2.66173 24.8183 2.66173 21.721V8.27887C2.66173 5.18168 5.1815 2.66173 8.27869 2.66173H21.7208C24.8181 2.66173 27.3381 5.18168 27.3381 8.27887V21.721H27.3383Z" fill="white"/>
<path d="M15.0002 7.27008C10.7377 7.27008 7.27002 10.7378 7.27002 15.0003C7.27002 19.2626 10.7377 22.7301 15.0002 22.7301C19.2627 22.7301 22.7304 19.2626 22.7304 15.0003C22.7304 10.7378 19.2627 7.27008 15.0002 7.27008ZM15.0002 20.0682C12.2056 20.0682 9.93175 17.7947 9.93175 15.0001C9.93175 12.2053 12.2054 9.93163 15.0002 9.93163C17.795 9.93163 20.0687 12.2053 20.0687 15.0001C20.0687 17.7947 17.7949 20.0682 15.0002 20.0682Z" fill="white"/>
<path d="M23.0545 5.01312C22.5416 5.01312 22.0379 5.22074 21.6757 5.58451C21.3118 5.9465 21.1025 6.45046 21.1025 6.96506C21.1025 7.47806 21.3119 7.98184 21.6757 8.34561C22.0377 8.7076 22.5416 8.91699 23.0545 8.91699C23.5691 8.91699 24.0713 8.7076 24.435 8.34561C24.7988 7.98184 25.0064 7.47788 25.0064 6.96506C25.0064 6.45046 24.7988 5.9465 24.435 5.58451C24.073 5.22074 23.5691 5.01312 23.0545 5.01312Z" fill="white"/>
</svg>
