<svg width="37" height="50" viewBox="0 0 37 50" fill="none" xmlns="http://www.w3.org/2000/svg">
<g clip-path="url(#clip0)">
<path d="M11.93 38.6522C11.93 38.6522 10.0227 39.7614 13.2873 40.1367C17.2423 40.5879 19.2637 40.5232 23.6222 39.6983C23.6222 39.6983 24.768 40.4168 26.3683 41.0391C16.5978 45.2266 4.25576 40.7965 11.93 38.6522Z" fill="#5382A1"/>
<path d="M10.736 33.1878C10.736 33.1878 8.59683 34.7713 11.8639 35.1092C16.0888 35.5451 19.4252 35.5807 25.1986 34.469C25.1986 34.469 25.9972 35.2786 27.2528 35.7213C15.4397 39.1756 2.28198 35.9937 10.736 33.1878Z" fill="#5382A1"/>
<path d="M20.8009 23.9184C23.2084 26.6901 20.1684 29.1843 20.1684 29.1843C20.1684 29.1843 26.2813 26.0287 23.4739 22.077C20.8519 18.3918 18.8412 16.5608 29.7265 10.2477C29.7265 10.2477 12.6401 14.5151 20.8009 23.9184Z" fill="#E76F00"/>
<path d="M33.7231 42.6939C33.7231 42.6939 35.1346 43.8569 32.1687 44.7566C26.529 46.465 8.69581 46.9809 3.74181 44.8247C1.96098 44.0499 5.30055 42.9748 6.35105 42.7492C7.44661 42.5116 8.07269 42.5559 8.07269 42.5559C6.09222 41.1608 -4.72825 45.2954 2.57643 46.4794C22.4973 49.71 38.8904 45.0247 33.7231 42.6939Z" fill="#5382A1"/>
<path d="M12.847 27.5261C12.847 27.5261 3.77591 29.6806 9.63472 30.463C12.1085 30.7942 17.0399 30.7193 21.6334 30.3344C25.3874 30.0177 29.1569 29.3444 29.1569 29.3444C29.1569 29.3444 27.8332 29.9113 26.8755 30.5652C17.6639 32.9879 -0.13108 31.8608 4.99188 29.3828C9.32437 27.2885 12.847 27.5261 12.847 27.5261Z" fill="#5382A1"/>
<path d="M29.1194 36.6217C38.4833 31.7559 34.1538 27.0798 31.1318 27.7098C30.3911 27.8639 30.0609 27.9975 30.0609 27.9975C30.0609 27.9975 30.3359 27.5668 30.861 27.3803C36.8394 25.2785 41.4372 33.5793 28.9312 36.867C28.9312 36.8671 29.076 36.7376 29.1194 36.6217Z" fill="#5382A1"/>
<path d="M23.4738 0.053772C23.4738 0.053772 28.6597 5.24144 18.5552 13.2186C10.4523 19.6177 16.7075 23.2662 18.5518 27.4349C13.822 23.1675 10.351 19.4109 12.6797 15.9146C16.0975 10.7824 25.5662 8.29407 23.4738 0.053772Z" fill="#E76F00"/>
<path d="M13.7671 49.8072C22.7554 50.3825 36.5579 49.4879 36.8848 45.235C36.8848 45.235 36.2564 46.8472 29.4565 48.1276C21.7848 49.5713 12.3229 49.4028 6.71094 48.4775C6.71107 48.4774 7.85978 49.4283 13.7671 49.8072Z" fill="#5382A1"/>
</g>
<defs>
<clipPath id="clip0">
<rect width="36.9942" height="50" fill="white"/>
</clipPath>
</defs>
</svg>
