<svg width="50" height="50" viewBox="0 0 50 50" fill="none" xmlns="http://www.w3.org/2000/svg">
<path d="M0 0H50V50H0V0Z" fill="#F7DF1E"/>
<path d="M13.1466 41.7836L16.9729 39.468C17.7111 40.7768 18.3826 41.8842 19.9933 41.8842C21.5373 41.8842 22.5107 41.2802 22.5107 38.931V22.9548H27.2094V38.9975C27.2094 43.8641 24.3567 46.0793 20.1947 46.0793C16.4359 46.0793 14.254 44.1325 13.1465 41.7833" fill="black"/>
<path d="M29.7622 41.2802L33.5881 39.065C34.5952 40.7098 35.9042 41.918 38.2199 41.918C40.1668 41.918 41.4083 40.9445 41.4083 39.602C41.4083 37.991 40.133 37.4203 37.9849 36.4809L36.8105 35.9771C33.4205 34.5342 31.1717 32.7218 31.1717 28.8955C31.1717 25.3714 33.8566 22.6862 38.0522 22.6862C41.0393 22.6862 43.1874 23.7268 44.7311 26.4454L41.0727 28.7947C40.2671 27.3516 39.3947 26.7811 38.0523 26.7811C36.6762 26.7811 35.8035 27.6538 35.8035 28.7947C35.8035 30.2044 36.6762 30.7751 38.6897 31.6478L39.8643 32.1512C43.8584 33.863 46.1072 35.6081 46.1072 39.5349C46.1072 43.7641 42.7845 46.0797 38.3207 46.0797C33.9575 46.0797 31.1382 43.9989 29.7623 41.2802" fill="black"/>
</svg>
