<svg width="30" height="30" viewBox="0 0 30 30" fill="none" xmlns="http://www.w3.org/2000/svg">
<g clip-path="url(#clip0)">
<path d="M29.9926 30V29.9988H30.0001V18.9963C30.0001 13.6138 28.8413 9.46753 22.5488 9.46753C19.5238 9.46753 17.4938 11.1275 16.6651 12.7013H16.5776V9.97003H10.6113V29.9988H16.8238V20.0813C16.8238 17.47 17.3188 14.945 20.5526 14.945C23.7388 14.945 23.7863 17.925 23.7863 20.2488V30H29.9926Z" fill="white"/>
<path d="M0.495117 9.97119H6.71512V29.9999H0.495117V9.97119Z" fill="white"/>
<path d="M3.6025 0C1.61375 0 0 1.61375 0 3.6025C0 5.59125 1.61375 7.23875 3.6025 7.23875C5.59125 7.23875 7.205 5.59125 7.205 3.6025C7.20375 1.61375 5.59 0 3.6025 0V0Z" fill="white"/>
</g>
<defs>
<clipPath id="clip0">
<rect width="30" height="30" fill="white"/>
</clipPath>
</defs>
</svg>
