<svg viewBox="0 0 50 50" xmlns="http://www.w3.org/2000/svg">
<path d="M24.9911 47.4608C24.3938 47.4608 23.7877 47.3004 23.2618 46.9973L17.7619 43.7438C16.9419 43.2802 17.343 43.1199 17.6104 43.0306C18.7067 42.6473 18.9296 42.5672 20.0973 41.8986C20.2222 41.8274 20.3826 41.854 20.5073 41.9343L24.7325 44.439C24.8841 44.5281 25.0979 44.5281 25.2405 44.439L41.7046 34.9367C41.8562 34.8475 41.9541 34.6693 41.9541 34.4911V15.4866C41.9541 15.2994 41.8563 15.13 41.6958 15.0321L25.2406 5.53864C25.0892 5.44948 24.8842 5.44948 24.7326 5.53864L8.28643 15.0409C8.12588 15.13 8.02793 15.3083 8.02793 15.4955V34.4911C8.02793 34.6693 8.12588 34.8475 8.28643 34.9279L12.797 37.5307C15.2483 38.7518 16.7458 37.3168 16.7458 35.8639V17.1089C16.7458 16.8415 16.9597 16.6365 17.2272 16.6365H19.3131C19.5716 16.6365 19.7943 16.8415 19.7943 17.1089V35.8728C19.7943 39.1352 18.0115 41.0072 14.9186 41.0072C13.9646 41.0072 13.2159 41.0072 11.1301 39.9732L6.81572 37.4862C5.746 36.8711 5.08643 35.7212 5.08643 34.4823V15.4866C5.08643 14.2565 5.746 13.0977 6.81572 12.4827L23.2618 2.98033C24.3047 2.39205 25.6864 2.39205 26.7204 2.98033L43.1847 12.4915C44.2543 13.1065 44.9139 14.2564 44.9139 15.4955V34.4911C44.9139 35.7212 44.2543 36.8711 43.1847 37.4951L26.7204 46.9973C26.1944 47.3004 25.5971 47.4608 24.9911 47.4608ZM38.2819 28.7328C38.2819 25.176 35.8751 24.2312 30.821 23.5628C25.7042 22.8852 25.1873 22.5376 25.1873 21.3431C25.1873 20.3538 25.6241 19.0344 29.4125 19.0344C32.791 19.0344 34.039 19.7654 34.5559 22.0474C34.6005 22.2613 34.7968 22.4217 35.0193 22.4217H37.159C37.2925 22.4217 37.4173 22.3683 37.5065 22.2702C37.5958 22.1722 37.6402 22.0384 37.6311 21.9047C37.3015 17.9738 34.6896 16.1464 29.4125 16.1464C24.7149 16.1464 21.916 18.1253 21.916 21.4502C21.916 25.0513 24.706 26.0499 29.2074 26.4953C34.6005 27.0214 35.0193 27.8147 35.0193 28.8755C35.0193 30.7119 33.5398 31.4961 30.0723 31.4961C25.7134 31.4961 24.7595 30.3997 24.4386 28.2338C24.4029 28.002 24.2067 27.8327 23.9662 27.8327H21.8356C21.5683 27.8327 21.3634 28.0466 21.3634 28.3049C21.3634 31.0774 22.8698 34.3844 30.0813 34.3844C35.2868 34.3755 38.2819 32.316 38.2819 28.7328Z" fill="#539E43"/>
</svg>
