<svg viewBox="0 0 50 50" xmlns="http://www.w3.org/2000/svg">
<path d="M25 14.3661C37.0305 14.3661 46.2815 19.4338 46.2815 24.9999C46.2815 30.5661 37.0233 35.6338 25 35.6338C12.9693 35.6338 3.71826 30.5661 3.71826 24.9999C3.71826 19.4338 12.9763 14.3661 25 14.3661ZM25 13.187C12.5973 13.187 2.53906 18.4722 2.53906 24.9999C2.53906 31.5277 12.5973 36.8131 25 36.8131C37.4026 36.8131 47.4607 31.5277 47.4607 24.9999C47.4607 18.4722 37.4026 13.187 25 13.187ZM17.8545 24.0524C17.3001 26.8951 15.3418 26.6002 12.9342 26.6002L13.8958 21.6448C16.5631 21.6449 18.3739 21.3571 17.8545 24.0524ZM9.37559 31.6188H11.9516L12.5623 28.4744C15.4471 28.4744 17.2368 28.685 18.8934 27.1337C20.7253 25.4491 21.2025 22.452 19.8971 20.9499C19.2163 20.1638 18.1212 19.7778 16.6333 19.7778H11.6708L9.37559 31.6188ZM22.4099 16.6263H24.9719L24.3611 19.7707C26.5721 19.7707 28.6217 19.6093 29.6114 20.5218C30.6503 21.4764 30.152 22.6977 29.0288 28.4604H26.4317C27.5127 22.8873 27.7163 22.4241 27.3231 22.0029C26.9442 21.5958 26.0808 21.68 23.9962 21.68L22.6766 28.4604H20.1146L22.4099 16.6263ZM37.9852 24.0524C37.4235 26.9373 35.4091 26.6002 33.0647 26.6002L34.0264 21.6448C36.7076 21.6449 38.5045 21.3571 37.9852 24.0524ZM29.5062 31.6188H32.0892L32.6999 28.4744C35.732 28.4744 37.4096 28.6497 39.031 27.1337C40.8629 25.4491 41.3401 22.452 40.0348 20.9499C39.3537 20.1638 38.2588 19.7778 36.7708 19.7778H31.8083L29.5062 31.6188Z" fill="#007AFF"/>
</svg>
