<svg viewBox="0 0 50 50" xmlns="http://www.w3.org/2000/svg">
<path d="M24.9582 29.1501C27.2686 29.1501 29.1416 27.2772 29.1416 24.9668C29.1416 22.6564 27.2686 20.7834 24.9582 20.7834C22.6478 20.7834 20.7749 22.6564 20.7749 24.9668C20.7749 27.2772 22.6478 29.1501 24.9582 29.1501Z" fill="#00D8FF"/>
<path d="M24.9582 34.5499C19.0832 34.5499 13.9498 33.8582 10.1082 32.5416C7.6165 31.6916 5.49984 30.5582 3.9915 29.2666C2.3915 27.8999 1.5415 26.4082 1.5415 24.9666C1.5415 22.1999 4.57484 19.4916 9.6665 17.7249C13.8332 16.2749 19.2665 15.4666 24.9498 15.4666C30.5332 15.4666 35.8915 16.2499 40.0332 17.6832C42.4582 18.5166 44.4998 19.5999 45.9498 20.7999C47.5248 22.1166 48.3582 23.5582 48.3582 24.9666C48.3582 27.8416 44.9665 30.7499 39.4998 32.5582C35.6332 33.8416 30.4665 34.5499 24.9582 34.5499ZM24.9582 17.4666C19.5665 17.4666 14.2332 18.2499 10.3332 19.6082C5.64984 21.2416 3.54984 23.4749 3.54984 24.9666C3.54984 26.5166 5.80817 28.9582 10.7582 30.6499C14.3915 31.8916 19.3082 32.5499 24.9582 32.5499C30.2582 32.5499 35.1998 31.8832 38.8748 30.6582C44.0165 28.9499 46.3665 26.5082 46.3665 24.9666C46.3665 24.1749 45.7665 23.2416 44.6748 22.3332C43.4165 21.2832 41.5832 20.3249 39.3915 19.5666C35.4498 18.2166 30.3248 17.4666 24.9582 17.4666Z" fill="#00D8FF"/>
<path d="M15.4667 45.8167C14.6167 45.8167 13.8667 45.6334 13.2334 45.2667C10.8417 43.8834 10.0084 39.9 11.0167 34.6084C11.8417 30.2667 13.8584 25.1667 16.7001 20.2417C19.4917 15.4084 22.8417 11.1584 26.1501 8.28335C28.0834 6.60002 30.0417 5.36668 31.8084 4.71668C33.7334 4.00835 35.4001 4.00835 36.6167 4.70835C39.1084 6.14168 39.9334 10.5417 38.7667 16.175C37.9417 20.175 35.9751 25 33.2251 29.775C30.2917 34.8584 27.1251 38.9584 24.0667 41.6334C22.0834 43.3667 20.0417 44.6334 18.1751 45.2917C17.2001 45.6417 16.2834 45.8167 15.4667 45.8167ZM17.5584 20.7417L18.4251 21.2417C15.7334 25.9084 13.7417 30.9167 12.9751 34.9834C12.0501 39.8584 12.9417 42.7917 14.2251 43.5334C14.5417 43.7167 14.9584 43.8167 15.4667 43.8167C17.1251 43.8167 19.7334 42.7667 22.7501 40.1334C25.6417 37.6084 28.6667 33.675 31.4917 28.7834C34.1417 24.1917 36.0251 19.575 36.8084 15.7834C37.9001 10.475 36.9584 7.22502 35.6167 6.45002C34.9334 6.05835 33.8251 6.10835 32.4917 6.60002C30.9501 7.16668 29.2084 8.27502 27.4584 9.80002C24.3167 12.5334 21.1084 16.6 18.4251 21.25L17.5584 20.7417Z" fill="#00D8FF"/>
<path d="M34.4504 45.8417C32.1838 45.8417 29.3088 44.475 26.3088 41.8917C22.9588 39.0084 19.5504 34.7167 16.7004 29.7917C13.9004 24.9583 11.9004 19.9333 11.0588 15.625C10.5671 13.1083 10.4754 10.8 10.7921 8.94167C11.1421 6.91667 11.9671 5.475 13.1921 4.76666C15.6754 3.325 19.9004 4.80833 24.2004 8.63333C27.2504 11.3417 30.4504 15.4583 33.2088 20.225C36.1504 25.3083 38.1254 30.1 38.9088 34.0833C39.4171 36.6667 39.5004 39.0667 39.1421 41.0167C38.7588 43.0917 37.8921 44.5667 36.6421 45.2917C36.0171 45.6584 35.2754 45.8417 34.4504 45.8417ZM18.4338 28.7917C21.1338 33.4583 24.4838 37.6833 27.6171 40.375C31.3754 43.6083 34.3588 44.3083 35.6504 43.5583C36.9921 42.7834 37.9754 39.6083 36.9588 34.475C36.2088 30.7083 34.3171 26.125 31.4838 21.2333C28.8254 16.6417 25.7671 12.7 22.8754 10.1333C18.8254 6.53333 15.5421 5.725 14.2004 6.5C13.5171 6.89166 13.0088 7.88333 12.7671 9.28333C12.4921 10.9 12.5754 12.9667 13.0254 15.2417C13.8254 19.3333 15.7421 24.1417 18.4338 28.7917Z" fill="#00D8FF"/>
</svg>
