<svg viewBox="0 0 50 50" xmlns="http://www.w3.org/2000/svg">
<path d="M41.2118 27.5189C39.6399 27.5258 38.2786 27.9048 37.1419 28.4662C36.7279 27.631 36.2997 26.9013 36.2295 26.354C36.1455 25.7154 36.0541 25.3366 36.1525 24.5788C36.2508 23.8207 36.6927 22.7471 36.6858 22.6701C36.6788 22.5929 36.5875 22.2069 35.6824 22.1998C34.7772 22.1929 33.9984 22.3752 33.9071 22.6138C33.8157 22.8524 33.6405 23.3928 33.5352 23.9541C33.3738 24.7751 31.7246 27.7083 30.7913 29.238C30.4827 28.6417 30.2231 28.1153 30.1668 27.6943C30.0827 27.0556 29.9914 26.6768 30.0897 25.919C30.1879 25.161 30.6299 24.0873 30.6229 24.0103C30.6159 23.9331 30.5246 23.5471 29.6196 23.5401C28.7143 23.5331 27.9356 23.7155 27.8442 23.9541C27.753 24.1926 27.6547 24.754 27.4723 25.2946C27.29 25.8346 25.0935 30.7185 24.5181 31.9887C24.2233 32.6341 23.9708 33.1535 23.7883 33.5044C23.7604 33.5605 23.7393 33.5956 23.7252 33.6238C23.7462 33.5887 23.7604 33.5535 23.7604 33.5677C23.606 33.8693 23.5147 34.0377 23.5147 34.0377V34.0447C23.3953 34.2692 23.262 34.4726 23.199 34.4726C23.1568 34.4726 23.0657 33.8833 23.2201 33.0763C23.5497 31.3782 24.3286 28.74 24.3216 28.6486C24.3146 28.5995 24.4689 28.1434 23.8093 27.8977C23.1708 27.6662 22.9392 28.0522 22.8831 28.0522C22.8271 28.0522 22.7849 28.1926 22.7849 28.1926C22.7849 28.1926 23.4937 25.2173 21.4236 25.2173C20.1325 25.2173 18.3362 26.6349 17.4521 27.919C16.8977 28.2207 15.6977 28.8733 14.4347 29.5679C13.9505 29.8346 13.4523 30.1081 12.9822 30.3679C12.9471 30.3327 12.919 30.2976 12.8839 30.2625C10.3718 27.5822 5.73353 25.6875 5.93012 22.0876C6.00023 20.7754 6.45639 17.3302 14.8488 13.148C21.7255 9.72367 27.2268 10.664 28.1743 12.755C29.5354 15.7373 25.2339 21.2878 18.0907 22.0876C15.368 22.3894 13.9367 21.3369 13.5787 20.944C13.2068 20.53 13.1506 20.5088 13.0103 20.5861C12.7787 20.7123 12.9261 21.0773 13.0103 21.2948C13.2208 21.8491 14.0979 22.8315 15.5926 23.3227C16.9046 23.7507 20.0975 23.9894 23.9568 22.4947C28.2933 20.8246 31.6686 16.1722 30.6791 12.2779C29.6688 8.32035 23.1078 7.02211 16.8978 9.22543C13.1998 10.5376 9.20014 12.6007 6.32308 15.2881C2.9058 18.488 2.35853 21.2737 2.58295 22.4386C3.38295 26.5715 9.0807 29.2662 11.3613 31.2589C11.249 31.3221 11.1437 31.3783 11.0455 31.4344C9.9018 32.0027 5.55824 34.2762 4.47055 36.6763C3.24271 39.3989 4.67396 41.3495 5.6143 41.6162C8.5474 42.4301 11.5507 40.9636 13.1647 38.5567C14.7785 36.1499 14.5821 33.0063 13.8383 31.5747C13.8312 31.5538 13.8172 31.5399 13.8103 31.5186C14.1049 31.3433 14.4066 31.1678 14.7084 30.9924C15.2908 30.6486 15.8592 30.3327 16.3574 30.0592C16.0766 30.8171 15.8732 31.7289 15.7679 33.0484C15.6416 34.592 16.2802 36.5919 17.1082 37.3779C17.473 37.7217 17.9151 37.7288 18.1888 37.7288C19.1572 37.7288 19.5921 36.9287 20.0763 35.9745C20.6728 34.8094 21.1991 33.4551 21.1991 33.4551C21.1991 33.4551 20.5395 37.1183 22.3428 37.1183C23.0024 37.1183 23.6621 36.2692 23.9567 35.8341V35.8411C23.9567 35.8411 23.9708 35.8131 24.0059 35.7571C24.076 35.6517 24.1111 35.5885 24.1111 35.5885V35.5673C24.3777 35.1113 24.9602 34.0657 25.8371 32.3396C26.9741 30.108 28.0616 27.3222 28.0616 27.3222C28.0616 27.3222 28.1598 28.0031 28.4968 29.1328C28.6932 29.7994 29.1072 30.5291 29.437 31.2379C29.1704 31.6028 29.0089 31.8133 29.0089 31.8133C29.0089 31.8133 29.0089 31.8203 29.0158 31.8273C28.8053 32.1081 28.5668 32.4099 28.3212 32.7046C27.423 33.7711 26.3564 34.9922 26.2162 35.343C26.0476 35.7571 26.0898 36.0656 26.4126 36.3043C26.6511 36.4869 27.0722 36.5148 27.5142 36.4798C28.3212 36.4235 28.8896 36.2272 29.1632 36.1006C29.5982 35.9465 30.1036 35.7007 30.5807 35.357C31.4578 34.7116 31.9912 33.7853 31.9419 32.5643C31.9139 31.8907 31.6962 31.2169 31.4296 30.5856C31.5069 30.4732 31.5911 30.3538 31.6683 30.2347C33.0578 28.2065 34.1314 25.9824 34.1314 25.9824C34.1314 25.9824 34.2296 26.6628 34.5663 27.7926C34.7348 28.3611 35.0646 28.9856 35.3662 29.5959C34.0611 30.6556 33.2542 31.8837 32.9735 32.6905C32.4541 34.1852 32.8612 34.8586 33.626 35.0133C33.9699 35.0834 34.4611 34.9219 34.826 34.7675C35.2821 34.6131 35.8294 34.3675 36.3416 33.9886C37.2188 33.3432 38.0679 32.4378 38.0119 31.2099C37.9907 30.6555 37.8364 30.1012 37.6328 29.5679C38.7344 29.1049 40.1661 28.8521 41.9905 29.0627C45.899 29.5188 46.6637 31.9607 46.5163 32.9781C46.3692 34.0027 45.5482 34.5641 45.2744 34.7325C45.0006 34.9009 44.9165 34.9641 44.9377 35.0904C44.9727 35.2728 45.099 35.2659 45.3305 35.2236C45.6535 35.1675 47.3795 34.3955 47.4566 32.508C47.5691 30.1221 45.2746 27.4979 41.2118 27.5189ZM11.0876 37.6725C9.79662 39.0829 7.98617 39.6163 7.20736 39.1671C6.3723 38.6831 6.70209 36.606 8.29496 35.1042C9.26332 34.1921 10.5123 33.3501 11.3404 32.8309C11.5298 32.7187 11.8036 32.5502 12.1404 32.3467C12.1965 32.3119 12.2245 32.2977 12.2245 32.2977C12.2876 32.2554 12.3579 32.2205 12.4281 32.1783C13.0103 34.3115 12.449 36.1919 11.0876 37.6725ZM20.5186 31.2589C20.0695 32.3605 19.1221 35.1674 18.5469 35.0201C18.0557 34.8937 17.7538 32.7536 18.4487 30.6486C18.7994 29.5889 19.5432 28.3259 19.9854 27.8348C20.694 27.0417 21.4729 26.7891 21.6554 27.1049C21.9009 27.5189 20.7992 30.5713 20.5186 31.2589ZM28.3074 34.9782C28.118 35.0763 27.9425 35.1394 27.8583 35.0903C27.7952 35.0552 27.9356 34.9218 27.9356 34.9218C27.9356 34.9218 28.9108 33.8763 29.2968 33.399C29.5213 33.1184 29.7809 32.7885 30.0617 32.4238C30.0617 32.4586 30.0685 32.494 30.0685 32.5359C30.0618 33.7921 28.8548 34.6413 28.3074 34.9782ZM34.3141 33.6097C34.1738 33.5115 34.1947 33.1817 34.6649 32.1571C34.8474 31.7571 35.2685 31.0835 35.9981 30.4379C36.0824 30.7045 36.1314 30.9571 36.1314 31.1956C36.1243 32.7746 34.9947 33.364 34.3141 33.6097Z" fill="#CF649A"/>
</svg>
