<svg width="200" height="200" viewBox="0 0 200 200" fill="none" xmlns="http://www.w3.org/2000/svg">
<g clip-path="url(#clip0_343_149)">
<rect width="200" height="200" rx="100" fill="white"/>
<path d="M25.1002 178.35C26.1237 186.364 33.3762 236.365 34.3632 246.236H167.67C168.435 237.333 171.875 198.401 174.78 180.99C177.552 164.376 181.438 156.816 178.245 151.653C172.611 142.547 154.685 138.481 142.544 137.385C135.131 136.715 123.981 136.236 123.981 136.236C123.981 136.236 123.037 148.968 100.527 149.677C69.883 150.638 71.9292 136.236 71.7773 136.236C66.8133 136.236 39.7912 138.643 33.0345 141.579C23.4913 145.726 20.6707 151.377 20.5591 156.569C20.4315 162.547 23.9378 169.26 25.1002 178.35Z" fill="#6E07F3"/>
<path d="M134.773 68.6013C134.773 68.6013 144.347 60.3118 145.672 42.6286C146.697 28.9345 134.773 38.5606 134.773 38.5606C134.773 38.5606 135.416 28.6933 128.358 30.1406C121.3 31.5878 117.995 42.1305 117.995 42.1305" fill="#0C0C0C"/>
<path d="M91.6011 33.7546C91.6011 33.7546 56.4976 39.914 72.4896 86.9688H82.0117" fill="#0C0C0C"/>
<path d="M130.371 137.313C130.215 137.293 128.487 165.98 95.1599 163.479C72.0885 161.75 63.8621 137.273 63.3335 137.273C65.821 136.744 70.01 135.975 71.1148 135.386C74.7473 133.434 79.2426 131.402 80.4134 124.347C81.0888 120.281 79.9439 99.4783 80.2958 95.3634L115.711 103.268C115.216 111.957 111.753 132.101 123.891 135.666C125.911 136.256 128.087 136.798 130.371 137.313Z" fill="#E98862"/>
<path d="M116.207 127.434C115.653 125.646 115.296 123.803 115.142 121.938C114.753 117.68 114.83 113.394 115.374 109.153C108.175 108.182 101.394 105.21 95.8 100.578C95.1429 103.006 91.5261 113.618 92.5277 115.926C94.42 120.289 103.315 127.434 116.207 127.434Z" fill="#0C0C0C"/>
<path d="M109.921 120.502C95.8971 120.187 78.6222 112.497 77.1138 93.59L75.7549 76.5298C74.2464 57.6235 82.9572 41.5038 100.755 40.0837C118.557 38.6629 133.086 52.9257 134.593 71.8347L135.196 79.3877C135.357 81.9845 135.342 84.5892 135.149 87.1839C134.691 94.0466 133.967 104.479 129.82 111.781C125.905 118.677 118.881 120.705 109.921 120.502Z" fill="#E98862"/>
<path d="M129.311 83.432C130.526 83.432 131.511 82.4473 131.511 81.2325C131.511 80.0178 130.526 79.0331 129.311 79.0331C128.097 79.0331 127.112 80.0178 127.112 81.2325C127.112 82.4473 128.097 83.432 129.311 83.432Z" fill="#0C0C0C"/>
<path d="M109.115 83.5698C110.33 83.5698 111.314 82.5851 111.314 81.3703C111.314 80.1556 110.33 79.1709 109.115 79.1709C107.9 79.1709 106.916 80.1556 106.916 81.3703C106.916 82.5851 107.9 83.5698 109.115 83.5698Z" fill="#0C0C0C"/>
<path d="M78.6787 99.2616C73.2688 99.6937 68.4187 94.2559 67.99 88.846C67.5612 83.436 71.706 80.1025 77.1159 79.6731L80.1926 83.0752L83.3304 98.8926L78.6787 99.2616Z" fill="#E98862"/>
<path d="M84.2463 88.7748C84.2463 88.7748 84.2803 61.8766 92.2885 59.6792C97.6224 58.2156 111.25 65.0069 123.24 61.8766C128.487 60.5068 133.619 61.4839 134.301 63.9599C134.573 64.9404 136.924 50.4384 127.876 40.1553C120.673 31.969 98.8278 30.9824 89.1535 34.4763C62.366 44.1417 76.8421 79.5001 76.8421 79.5001L78.6767 88.6498L84.2463 88.7748Z" fill="#0C0C0C"/>
<path d="M119.198 95.2639H119.232C120.976 95.128 123.886 94.7094 123.785 93.4048C123.7 92.3238 119.844 80.8856 119.401 79.5851C119.36 79.4773 119.279 79.3895 119.175 79.3403C119.071 79.2911 118.951 79.2843 118.842 79.3212C118.733 79.3582 118.642 79.436 118.589 79.5385C118.536 79.6409 118.525 79.7599 118.558 79.8704C120.27 84.9359 122.838 92.739 122.896 93.4735C122.749 93.7949 120.968 94.2358 119.159 94.3758C119.042 94.3815 118.932 94.4331 118.853 94.5195C118.773 94.6058 118.731 94.7199 118.736 94.837C118.74 94.9541 118.791 95.0647 118.876 95.1449C118.961 95.225 119.075 95.2683 119.192 95.2652L119.198 95.2639Z" fill="#0C0C0C"/>
<path d="M123.098 68.4383C124.876 67.8151 126.788 67.6822 128.635 68.0537C129.543 68.2308 130.42 68.5432 131.235 68.9805C132.042 69.4094 132.792 69.9381 133.467 70.5542C133.578 70.6505 133.647 70.786 133.66 70.9322C133.672 71.0784 133.628 71.2238 133.535 71.3377C133.443 71.4517 133.31 71.5253 133.164 71.543C133.019 71.5607 132.872 71.5212 132.755 71.4327L132.719 71.4056C132.093 70.8943 131.405 70.4635 130.672 70.1234C129.95 69.7845 129.181 69.5568 128.39 69.448C126.829 69.2209 125.235 69.4105 123.77 69.9977L123.714 70.0208C123.611 70.0694 123.499 70.0967 123.384 70.101C123.27 70.1053 123.156 70.0864 123.05 70.0456C122.943 70.0048 122.845 69.9429 122.763 69.8635C122.681 69.7841 122.615 69.689 122.571 69.5837C122.526 69.4785 122.503 69.3653 122.503 69.251C122.504 69.1367 122.527 69.0236 122.572 68.9185C122.617 68.8134 122.682 68.7184 122.765 68.6393C122.847 68.5602 122.945 68.4985 123.052 68.458L123.098 68.4383Z" fill="#0C0C0C"/>
<path d="M110.187 70.1811C108.722 69.5945 107.128 69.4053 105.567 69.6327C104.776 69.7415 104.007 69.9692 103.285 70.3081C102.552 70.6481 101.864 71.0789 101.238 71.5903L101.204 71.6168C101.087 71.7046 100.94 71.7438 100.795 71.726C100.65 71.7082 100.517 71.6349 100.425 71.5215C100.333 71.4081 100.288 71.2633 100.3 71.1175C100.312 70.9718 100.38 70.8363 100.49 70.7396C101.164 70.123 101.914 69.594 102.722 69.1653C103.537 68.7276 104.414 68.4149 105.323 68.2378C107.169 67.8663 109.082 67.9991 110.859 68.6224C111.066 68.7021 111.234 68.8599 111.327 69.0619C111.419 69.2639 111.429 69.4942 111.354 69.7033C111.279 69.9125 111.125 70.0839 110.925 70.1808C110.725 70.2777 110.495 70.2924 110.284 70.2218L110.243 70.2062L110.187 70.1811Z" fill="#0C0C0C"/>
<path d="M121.333 99.6933C116.261 100.279 111.138 99.1576 106.774 96.5066C106.622 96.4153 106.448 96.3691 106.271 96.3733C106.095 96.3775 105.923 96.4319 105.776 96.5303C105.629 96.6286 105.513 96.7667 105.442 96.9284C105.371 97.0902 105.347 97.2688 105.374 97.4435C105.86 100.433 107.616 105.889 113.956 106.286C118.05 106.542 120.848 103.271 122.234 101.122C122.331 100.972 122.383 100.799 122.384 100.621C122.385 100.444 122.335 100.27 122.24 100.119C122.146 99.9691 122.01 99.8492 121.849 99.7737C121.688 99.6982 121.509 99.6703 121.333 99.6933Z" fill="white"/>
<path d="M119.205 50.0653C123.156 48.9594 125.04 43.3478 123.412 37.5314C121.785 31.7151 117.262 27.8965 113.31 29.0024C109.358 30.1084 107.474 35.72 109.102 41.5363C110.73 47.3527 115.253 51.1712 119.205 50.0653Z" fill="#0C0C0C"/>
</g>
<defs>
<clipPath id="clip0_343_149">
<rect width="200" height="200" rx="100" fill="white"/>
</clipPath>
</defs>
</svg>
