<svg width="12" height="12" viewBox="0 0 12 12" fill="none" xmlns="http://www.w3.org/2000/svg">
<path d="M3.41386 5.0322C3.41386 5.17922 3.42976 5.29843 3.45757 5.38584C3.48936 5.47326 3.52909 5.56863 3.58472 5.67194C3.60459 5.70372 3.61254 5.73551 3.61254 5.76333C3.61254 5.80306 3.5887 5.8428 3.53704 5.88253L3.28671 6.04942C3.25095 6.07326 3.21519 6.08518 3.1834 6.08518C3.14366 6.08518 3.10393 6.06531 3.06419 6.02955C3.00856 5.96995 2.96088 5.90637 2.92115 5.8428C2.88141 5.77525 2.84168 5.69975 2.79797 5.60836C2.48804 5.97392 2.09863 6.15671 1.62976 6.15671C1.29598 6.15671 1.02976 6.06134 0.835055 5.87061C0.640353 5.67988 0.541016 5.42558 0.541016 5.1077C0.541016 4.76995 0.660221 4.49578 0.902605 4.28916C1.14499 4.08253 1.46684 3.97922 1.87611 3.97922C2.01121 3.97922 2.15029 3.99114 2.29731 4.01101C2.44433 4.03088 2.59532 4.06267 2.75426 4.09843V3.80836C2.75426 3.50637 2.69068 3.29578 2.56751 3.1726C2.44035 3.04942 2.22578 2.98982 1.91982 2.98982C1.78075 2.98982 1.6377 3.00571 1.49068 3.04147C1.34366 3.07724 1.20062 3.12094 1.06155 3.17657C0.997969 3.20439 0.950287 3.22028 0.922473 3.22823C0.894658 3.23618 0.87479 3.24015 0.858896 3.24015C0.803267 3.24015 0.775453 3.20041 0.775453 3.11697V2.92227C0.775453 2.85869 0.7834 2.81101 0.803267 2.7832C0.823135 2.75538 0.858896 2.72757 0.914526 2.69975C1.0536 2.62823 1.22049 2.56863 1.41519 2.52094C1.60989 2.46929 1.81651 2.44545 2.03506 2.44545C2.5079 2.44545 2.8536 2.55273 3.07611 2.7673C3.29466 2.98187 3.40592 3.3077 3.40592 3.74478V5.0322H3.41386ZM1.80062 5.63618C1.93174 5.63618 2.06684 5.61233 2.20989 5.56465C2.35294 5.51697 2.48009 5.42955 2.58737 5.31035C2.65095 5.23485 2.69863 5.15141 2.72247 5.05604C2.74631 4.96068 2.76221 4.84545 2.76221 4.71035V4.54346C2.64698 4.51565 2.5238 4.4918 2.39664 4.47591C2.26949 4.46002 2.14631 4.45207 2.02313 4.45207C1.75691 4.45207 1.56221 4.50373 1.43108 4.61101C1.29996 4.71829 1.23638 4.86929 1.23638 5.06796C1.23638 5.25472 1.28406 5.39379 1.3834 5.48916C1.47876 5.58849 1.61784 5.63618 1.80062 5.63618ZM4.99135 6.06531C4.91982 6.06531 4.87214 6.05339 4.84035 6.02558C4.80856 6.00174 4.78075 5.94611 4.75691 5.87061L3.82313 2.79909C3.79929 2.71962 3.78737 2.66796 3.78737 2.64015C3.78737 2.57657 3.81916 2.54081 3.88274 2.54081H4.27214C4.34764 2.54081 4.39929 2.55273 4.42711 2.58055C4.4589 2.60439 4.48274 2.66002 4.50658 2.73551L5.17413 5.36598L5.794 2.73551C5.81386 2.65604 5.8377 2.60439 5.86949 2.58055C5.90128 2.55671 5.95691 2.54081 6.02843 2.54081H6.34631C6.42181 2.54081 6.47347 2.55273 6.50525 2.58055C6.53704 2.60439 6.56486 2.66002 6.58075 2.73551L7.20856 5.39777L7.89598 2.73551C7.91982 2.65604 7.94764 2.60439 7.97545 2.58055C8.00724 2.55671 8.0589 2.54081 8.13042 2.54081H8.49996C8.56353 2.54081 8.59929 2.5726 8.59929 2.64015C8.59929 2.66002 8.59532 2.67988 8.59135 2.70373C8.58737 2.72757 8.57943 2.75935 8.56353 2.80306L7.60592 5.87459C7.58207 5.95406 7.55426 6.00571 7.52247 6.02955C7.49068 6.05339 7.43903 6.06929 7.37148 6.06929H7.02976C6.95426 6.06929 6.9026 6.05737 6.87082 6.02955C6.83903 6.00174 6.81121 5.95008 6.79532 5.87061L6.17943 3.3077L5.56751 5.86664C5.54764 5.94611 5.5238 5.99776 5.49201 6.02558C5.46022 6.05339 5.40459 6.06531 5.33307 6.06531H4.99135ZM10.0973 6.1726C9.89068 6.1726 9.68406 6.14876 9.48539 6.10108C9.28671 6.05339 9.13174 6.00174 9.02843 5.94214C8.96486 5.90637 8.92115 5.86664 8.90525 5.83088C8.88936 5.79512 8.88141 5.75538 8.88141 5.71962V5.51697C8.88141 5.43353 8.9132 5.39379 8.9728 5.39379C8.99664 5.39379 9.02048 5.39777 9.04433 5.40571C9.06817 5.41366 9.10393 5.42955 9.14366 5.44545C9.27876 5.50505 9.42578 5.55273 9.58075 5.58452C9.73969 5.61631 9.89466 5.6322 10.0536 5.6322C10.3039 5.6322 10.4986 5.58849 10.6337 5.50108C10.7688 5.41366 10.8404 5.28651 10.8404 5.12359C10.8404 5.01233 10.8046 4.92094 10.7331 4.84545C10.6615 4.76995 10.5264 4.7024 10.3317 4.63882L9.75558 4.46002C9.46552 4.36863 9.25095 4.23353 9.11982 4.05472C8.9887 3.87988 8.92115 3.68518 8.92115 3.47856C8.92115 3.31167 8.95691 3.16465 9.02843 3.0375C9.09996 2.91035 9.19532 2.79909 9.31452 2.71167C9.43373 2.62028 9.56883 2.55273 9.72777 2.50505C9.88671 2.45737 10.0536 2.4375 10.2284 2.4375C10.3158 2.4375 10.4072 2.44147 10.4947 2.45339C10.586 2.46531 10.6695 2.48121 10.7529 2.4971C10.8324 2.51697 10.9079 2.53684 10.9794 2.56068C11.0509 2.58452 11.1066 2.60836 11.1463 2.6322C11.2019 2.66399 11.2417 2.69578 11.2655 2.73154C11.2894 2.76333 11.3013 2.80704 11.3013 2.86267V3.04942C11.3013 3.13286 11.2695 3.17657 11.2099 3.17657C11.1781 3.17657 11.1264 3.16068 11.0589 3.12889C10.8324 3.02558 10.5781 2.97392 10.296 2.97392C10.0695 2.97392 9.89068 3.00969 9.7675 3.08518C9.64433 3.16068 9.58075 3.27591 9.58075 3.43882C9.58075 3.55008 9.62049 3.64545 9.69995 3.72094C9.77943 3.79644 9.92645 3.87194 10.137 3.93949L10.7013 4.11829C10.9874 4.20969 11.194 4.33684 11.3172 4.49975C11.4404 4.66267 11.5 4.84942 11.5 5.05604C11.5 5.2269 11.4642 5.38187 11.3966 5.51697C11.3251 5.65207 11.2298 5.77127 11.1066 5.86664C10.9834 5.96598 10.8364 6.0375 10.6655 6.08916C10.4867 6.14478 10.3 6.1726 10.0973 6.1726Z" fill="white"/>
<path d="M10.8481 8.10371C9.54086 9.06927 7.64152 9.58185 6.00841 9.58185C3.71967 9.58185 1.65742 8.7355 0.0998028 7.32887C-0.023376 7.21762 0.0878823 7.06662 0.234902 7.15404C1.91967 8.13152 3.99782 8.72358 6.14748 8.72358C7.59782 8.72358 9.19119 8.42159 10.6574 7.80172C10.876 7.70238 11.0627 7.94477 10.8481 8.10371ZM11.3925 7.48384C11.2256 7.26927 10.2879 7.38053 9.86272 7.43219C9.73556 7.44808 9.7157 7.33682 9.83093 7.25338C10.5779 6.72887 11.8058 6.87987 11.9488 7.0547C12.0919 7.23351 11.9091 8.46132 11.2097 9.0494C11.1025 9.14079 10.9991 9.09311 11.0468 8.97391C11.2058 8.58053 11.5594 7.69444 11.3925 7.48384Z" fill="white"/>
</svg>
