<svg  viewBox="0 0 12 12" fill="none" xmlns="http://www.w3.org/2000/svg">
<path d="M5.1748 7.57505C5.02147 7.57505 4.8998 7.53005 4.8098 7.44005C4.7198 7.35005 4.6748 7.22838 4.6748 7.07505V6.50005H5.42481V6.82505H6.57481V6.23755H5.17844C5.03102 6.23755 4.91022 6.19047 4.81605 6.0963C4.72189 6.00213 4.6748 5.88104 4.6748 5.73302V4.92957C4.6748 4.77322 4.7198 4.65005 4.8098 4.56005C4.8998 4.47005 5.02147 4.42505 5.1748 4.42505H6.82481C6.97814 4.42505 7.09981 4.47005 7.18981 4.56005C7.27981 4.65005 7.32481 4.77172 7.32481 4.92505V5.50005H6.57481V5.17505H5.42481V5.76255H6.82117C6.96859 5.76255 7.08939 5.80963 7.18356 5.9038C7.27772 5.99797 7.32481 6.11906 7.32481 6.26707V7.07052C7.32481 7.22687 7.27981 7.35005 7.18981 7.44005C7.09981 7.53005 6.97814 7.57505 6.82481 7.57505H5.1748ZM8.42481 7.57505C8.27147 7.57505 8.14981 7.53005 8.0598 7.44005C7.96981 7.35005 7.92481 7.22838 7.92481 7.07505V6.50005H8.67481V6.82505H9.82481V6.23755H8.42844C8.28102 6.23755 8.16022 6.19047 8.06606 6.0963C7.97189 6.00213 7.92481 5.88104 7.92481 5.73302V4.92957C7.92481 4.77322 7.96981 4.65005 8.0598 4.56005C8.14981 4.47005 8.27147 4.42505 8.42481 4.42505H10.0748C10.2281 4.42505 10.3498 4.47005 10.4398 4.56005C10.5298 4.65005 10.5748 4.77172 10.5748 4.92505V5.50005H9.82481V5.17505H8.67481V5.76255H10.0712C10.2186 5.76255 10.3394 5.80963 10.4336 5.9038C10.5277 5.99797 10.5748 6.11906 10.5748 6.26707V7.07052C10.5748 7.22687 10.5298 7.35005 10.4398 7.44005C10.3498 7.53005 10.2281 7.57505 10.0748 7.57505H8.42481ZM1.9248 7.57505C1.77147 7.57505 1.6498 7.53005 1.5598 7.44005C1.4698 7.35005 1.4248 7.22838 1.4248 7.07505V4.92505C1.4248 4.77172 1.4698 4.65005 1.5598 4.56005C1.6498 4.47005 1.77147 4.42505 1.9248 4.42505H3.5748C3.72814 4.42505 3.84981 4.47005 3.93981 4.56005C4.02981 4.65005 4.07481 4.77172 4.07481 4.92505V5.57505H3.3248V5.17505H2.1748V6.82505H3.3248V6.42505H4.07481V7.07154C4.07481 7.22388 4.02981 7.34588 3.93981 7.43755C3.84981 7.52922 3.72814 7.57505 3.5748 7.57505H1.9248Z" fill="white"/>
</svg>
