<svg width="12" height="12" viewBox="0 0 12 12" fill="none" xmlns="http://www.w3.org/2000/svg">
<path d="M11.7523 4.99205C11.4821 4.80456 10.8628 4.73425 10.3787 4.828C10.3224 4.35927 10.0634 3.94913 9.61308 3.58586L9.35412 3.39837L9.17397 3.66789C8.94879 4.01944 8.8362 4.51161 8.86998 4.98034C8.88124 5.14439 8.93753 5.43735 9.10642 5.69515C8.94879 5.7889 8.62228 5.90608 8.19444 5.90608H0.0541298L0.0316117 5.99983C-0.0472018 6.46856 -0.0472018 7.93334 0.876042 9.0583C1.5741 9.91373 2.60994 10.3473 3.97229 10.3473C6.92216 10.3473 9.10642 8.9294 10.131 6.36309C10.5363 6.37481 11.4033 6.36309 11.8424 5.48422C11.8536 5.46079 11.8762 5.41391 11.955 5.23814L12 5.14439L11.7523 4.99205ZM6.56187 1.6875H5.32337V2.85933H6.56187V1.6875ZM6.56187 3.09369H5.32337V4.26552H6.56187V3.09369ZM5.09819 3.09369H3.85969V4.26552H5.09819V3.09369ZM3.63451 3.09369H2.39602V4.26552H3.63451V3.09369ZM2.17083 4.49989H0.932337V5.67171H2.17083V4.49989ZM3.63451 4.49989H2.39602V5.67171H3.63451V4.49989ZM5.09819 4.49989H3.85969V5.67171H5.09819V4.49989ZM6.56187 4.49989H5.32337V5.67171H6.56187V4.49989ZM8.02555 4.49989H6.78705V5.67171H8.02555V4.49989Z" fill="white"/>
</svg>
