<svg width="12" height="12" viewBox="0 0 12 12" fill="none" xmlns="http://www.w3.org/2000/svg">
<path d="M11.8753 9.22875C11.4478 9.3375 11.1834 9.23344 10.9462 8.87719C10.4137 8.07938 9.8259 7.31813 9.25871 6.54281C9.18559 6.4425 9.10965 6.34406 9.01496 6.21938C8.34371 7.125 7.6734 7.9875 7.04434 8.88469C6.81934 9.20531 6.58309 9.345 6.16309 9.23156L8.68684 5.84438L6.33746 2.78531C6.74152 2.70656 7.0209 2.74688 7.2684 3.10875C7.81496 3.9075 8.41777 4.66781 9.01871 5.47219C9.6234 4.67063 10.2187 3.90938 10.7812 3.11813C11.0071 2.7975 11.25 2.67563 11.6559 2.79375C11.3484 3.20156 11.0475 3.60281 10.7446 4.00125C10.3359 4.53844 9.93465 5.08219 9.5109 5.60813C9.35996 5.79563 9.38434 5.9175 9.51934 6.09469C10.3031 7.125 11.0775 8.16563 11.8753 9.22875Z" fill="white"/>
<path d="M0.124883 5.78819C0.192383 5.44975 0.237383 5.10475 0.331133 4.77287C0.893633 2.76381 3.19988 1.9285 4.78426 3.1735C5.71238 3.90381 5.94301 4.93319 5.89707 6.09381H0.66582C0.58707 8.176 2.08613 9.43319 3.99676 8.79194C4.66707 8.56694 5.06176 8.04194 5.25957 7.38569C5.35988 7.05662 5.52582 7.00506 5.8352 7.09881C5.67676 7.92006 5.3177 8.60631 4.5677 9.03569C3.4427 9.67881 1.83676 9.47069 0.99207 8.57725C0.49332 8.05225 0.281445 7.39881 0.187695 6.69287C0.173633 6.58037 0.14457 6.46975 0.12207 6.35819C0.123945 6.16819 0.124883 5.97819 0.124883 5.78819ZM0.675195 5.6485H5.40301C5.37207 4.14287 4.43457 3.07319 3.15301 3.06381C1.74676 3.05256 0.736133 4.09694 0.675195 5.6485Z" fill="white"/>
</svg>
