<svg width="12" height="12" viewBox="0 0 12 12" fill="none" xmlns="http://www.w3.org/2000/svg">
<path d="M8 8C9.10457 8 10 7.10457 10 6C10 4.89543 9.10457 4 8 4C6.89543 4 6 4.89543 6 6C6 7.10457 6.89543 8 8 8Z" fill="#19BCFE"/>
<path fill-rule="evenodd" clip-rule="evenodd" d="M4 12C5.10457 12 6 11.1046 6 10C6 9.69847 6 9.03181 6 8C5.10152 8 4.43485 8 4 8C2.89543 8 2 8.89543 2 10C2 11.1046 2.89543 12 4 12Z" fill="#09CF83"/>
<path fill-rule="evenodd" clip-rule="evenodd" d="M4 8H6V4C5.03486 4 4.36819 4 4 4C2.89543 4 2 4.89543 2 6C2 7.10457 2.89543 8 4 8Z" fill="#A259FF"/>
<path fill-rule="evenodd" clip-rule="evenodd" d="M4 4H6V0C5.03486 0 4.36819 0 4 0C2.89543 0 2 0.89543 2 2C2 3.10457 2.89543 4 4 4Z" fill="#F24E1E"/>
<path fill-rule="evenodd" clip-rule="evenodd" d="M8 4H6V0H8C9.10457 0 10 0.89543 10 2C10 3.10457 9.10457 4 8 4Z" fill="#FF7262"/>
</svg>
