<svg width="12" height="12" viewBox="0 0 12 12" fill="none" xmlns="http://www.w3.org/2000/svg">
<g clip-path="url(#clip0_343_224)">
<path d="M11.7737 5.46532L6.53428 0.226334C6.23277 -0.0754446 5.74337 -0.0754446 5.44146 0.226334L4.3535 1.31429L5.73362 2.69441C6.05436 2.58605 6.4221 2.65873 6.6778 2.91443C6.93468 3.1717 7.00683 3.5426 6.89584 3.86439L8.22593 5.19448C8.54772 5.08362 8.91902 5.15538 9.17603 5.41279C9.53521 5.77184 9.53521 6.3538 9.17603 6.71312C8.81671 7.07243 8.23475 7.07243 7.8753 6.71312C7.60512 6.44268 7.53837 6.04584 7.67517 5.71298L6.43474 4.47256L6.43461 7.73682C6.52217 7.78027 6.60486 7.83807 6.6778 7.91075C7.03698 8.2698 7.03698 8.85177 6.6778 9.21135C6.31848 9.57053 5.73626 9.57053 5.37747 9.21135C5.01828 8.85177 5.01828 8.2698 5.37747 7.91075C5.46621 7.82214 5.56891 7.75512 5.67846 7.71009V4.41542C5.56891 4.37065 5.46634 4.30403 5.37747 4.21476C5.10531 3.943 5.03988 3.54366 5.17931 3.20949L3.81894 1.84885L0.226432 5.44109C-0.0754775 5.74314 -0.0754775 6.23254 0.226432 6.53432L5.46581 11.7734C5.76746 12.0752 6.25673 12.0752 6.55877 11.7734L11.7737 6.55867C12.0754 6.25676 12.0754 5.7671 11.7737 5.46532Z" fill="white"/>
</g>
<defs>
<clipPath id="clip0_343_224">
<rect width="12" height="12" fill="white"/>
</clipPath>
</defs>
</svg>
