<svg width="12" height="12" viewBox="0 0 12 12" fill="none" xmlns="http://www.w3.org/2000/svg">
<g clip-path="url(#clip0_340_281)">
<path d="M5.492 6.918C5.42582 6.91799 5.36235 6.89173 5.3155 6.845L4.943 6.4735C4.91909 6.45047 4.90001 6.42291 4.88687 6.39243C4.87372 6.36195 4.86678 6.32915 4.86645 6.29596C4.86611 6.26277 4.87239 6.22984 4.88492 6.1991C4.89744 6.16836 4.91597 6.14042 4.93941 6.11692C4.96285 6.09341 4.99073 6.07481 5.02144 6.06219C5.05214 6.04958 5.08505 6.04321 5.11825 6.04345C5.15144 6.04369 5.18425 6.05054 5.21477 6.0636C5.24529 6.07665 5.2729 6.09566 5.296 6.1195L5.492 6.315L6.0825 5.725C6.12938 5.67806 6.19298 5.65166 6.25932 5.65161C6.32566 5.65156 6.38931 5.67787 6.43625 5.72475C6.48319 5.77163 6.50959 5.83523 6.50964 5.90157C6.50969 5.96791 6.48338 6.03156 6.4365 6.0785L5.669 6.845C5.6219 6.89167 5.55831 6.9179 5.492 6.918ZM10.1685 6.8445L10.9355 6.0785C10.981 6.03135 11.0062 5.9682 11.0057 5.90265C11.0051 5.8371 10.9788 5.7744 10.9325 5.72805C10.8861 5.68169 10.8234 5.6554 10.7579 5.65483C10.6923 5.65426 10.6292 5.67946 10.582 5.725L9.9915 6.315L9.7955 6.1195C9.7724 6.09566 9.74479 6.07665 9.71427 6.0636C9.68375 6.05054 9.65094 6.04369 9.61775 6.04345C9.58455 6.04321 9.55164 6.04958 9.52094 6.06219C9.49023 6.07481 9.46235 6.09341 9.43891 6.11692C9.41547 6.14042 9.39694 6.16836 9.38442 6.1991C9.37189 6.22984 9.36561 6.26277 9.36595 6.29596C9.36628 6.32915 9.37322 6.36195 9.38637 6.39243C9.39951 6.42291 9.41859 6.45047 9.4425 6.4735L9.8155 6.845C9.83864 6.86828 9.86616 6.88674 9.89647 6.89933C9.92678 6.91191 9.95928 6.91837 9.9921 6.91832C10.0249 6.91828 10.0574 6.91173 10.0877 6.89906C10.118 6.88639 10.1454 6.86784 10.1685 6.8445ZM2.2635 3.726L3.542 2.9335C3.61418 2.88884 3.67381 2.82653 3.71525 2.75245C3.7567 2.67838 3.7786 2.59497 3.77891 2.51008C3.77921 2.4252 3.75789 2.34164 3.71697 2.26727C3.67605 2.1929 3.61687 2.13017 3.545 2.085L2.2665 1.28C2.19086 1.23235 2.10383 1.20585 2.01447 1.20327C1.92511 1.20068 1.83669 1.2221 1.75842 1.26529C1.68015 1.30849 1.61489 1.37188 1.56944 1.44886C1.52399 1.52584 1.50001 1.6136 1.5 1.703V3.301C1.50015 3.39005 1.52405 3.47744 1.56924 3.55417C1.61443 3.63089 1.67927 3.69417 1.75707 3.73748C1.83487 3.78079 1.92282 3.80256 2.01185 3.80054C2.10087 3.79852 2.18774 3.77279 2.2635 3.726ZM3.2785 2.508L2 3.301V1.703L3.2785 2.508ZM12 6.25C12 7.215 11.215 8 10.25 8C9.82963 7.9992 9.42356 7.84723 9.10595 7.57184C8.78833 7.29645 8.58036 6.91602 8.52 6.5H7.48C7.41964 6.91602 7.21167 7.29645 6.89405 7.57184C6.57644 7.84723 6.17038 7.9992 5.75 8C5.3296 7.9993 4.92348 7.84737 4.60584 7.57196C4.28821 7.29656 4.08026 6.91606 4.02 6.5H3.741C3.255 6.5 2.816 6.3005 2.5 5.979V8.5C2.5 9.327 3.173 10 4 10H4.02C4.142 9.1535 4.87 8.5 5.75 8.5C6.715 8.5 7.5 9.285 7.5 10.25C7.5 11.215 6.715 12 5.75 12C5.3296 11.9993 4.92348 11.8474 4.60584 11.572C4.28821 11.2966 4.08026 10.9161 4.02 10.5H4C2.897 10.5 2 9.603 2 8.5V4.9495C1.43575 4.83356 0.928725 4.52661 0.564405 4.08041C0.200085 3.63421 0.000748576 3.07604 0 2.5C0 1.1215 1.1215 0 2.5 0C3.8785 0 5 1.1215 5 2.5C4.99912 3.15853 4.73869 3.79017 4.2752 4.25798C3.8117 4.72578 3.1825 4.99203 2.524 4.999C2.57958 5.28096 2.73129 5.53489 2.95324 5.71744C3.17519 5.9 3.45362 5.99987 3.741 6H4.02C4.142 5.1535 4.87 4.5 5.75 4.5C6.1704 4.5007 6.57652 4.65263 6.89416 4.92804C7.21179 5.20344 7.41974 5.58394 7.48 6H8.52C8.58036 5.58398 8.78833 5.20355 9.10595 4.92816C9.42356 4.65277 9.82963 4.5008 10.25 4.5C11.215 4.5 12 5.285 12 6.25ZM4.5 10.25C4.5 10.939 5.061 11.5 5.75 11.5C6.439 11.5 7 10.939 7 10.25C7 9.561 6.439 9 5.75 9C5.061 9 4.5 9.561 4.5 10.25ZM2.5 4.5C3.603 4.5 4.5 3.603 4.5 2.5C4.5 1.397 3.603 0.5 2.5 0.5C1.397 0.5 0.5 1.397 0.5 2.5C0.5 3.603 1.397 4.5 2.5 4.5ZM7 6.25C7 5.561 6.439 5 5.75 5C5.061 5 4.5 5.561 4.5 6.25C4.5 6.939 5.061 7.5 5.75 7.5C6.439 7.5 7 6.939 7 6.25ZM11.5 6.25C11.5 5.561 10.939 5 10.25 5C9.561 5 9 5.561 9 6.25C9 6.939 9.561 7.5 10.25 7.5C10.939 7.5 11.5 6.939 11.5 6.25ZM5 10.25C5 10.3163 5.02634 10.3799 5.07322 10.4268C5.12011 10.4737 5.1837 10.5 5.25 10.5C5.3163 10.5 5.37989 10.4737 5.42678 10.4268C5.47366 10.3799 5.5 10.3163 5.5 10.25C5.5 10.1837 5.47366 10.1201 5.42678 10.0732C5.37989 10.0263 5.3163 10 5.25 10C5.1837 10 5.12011 10.0263 5.07322 10.0732C5.02634 10.1201 5 10.1837 5 10.25ZM6 10.25C6 10.3163 6.02634 10.3799 6.07322 10.4268C6.12011 10.4737 6.1837 10.5 6.25 10.5C6.3163 10.5 6.37989 10.4737 6.42678 10.4268C6.47366 10.3799 6.5 10.3163 6.5 10.25C6.5 10.1837 6.47366 10.1201 6.42678 10.0732C6.37989 10.0263 6.3163 10 6.25 10C6.1837 10 6.12011 10.0263 6.07322 10.0732C6.02634 10.1201 6 10.1837 6 10.25ZM12 10.25C12 11.215 11.215 12 10.25 12C9.82948 11.9992 9.42329 11.8471 9.10566 11.5715C8.78802 11.2959 8.58014 10.9152 8.52 10.499C8.5165 10.4995 8.5135 10.5015 8.5095 10.5015L8.2565 10.51H8.248C8.18352 10.5083 8.12218 10.4818 8.0768 10.436C8.03142 10.3902 8.0055 10.3286 8.00447 10.2641C8.00344 10.1996 8.02737 10.1372 8.07126 10.0899C8.11515 10.0427 8.17561 10.0142 8.24 10.0105L8.493 10.002C8.502 10.001 8.5105 10.005 8.519 10.0055C8.57818 9.58831 8.78578 9.20644 9.10372 8.92991C9.42166 8.65339 9.82863 8.50076 10.25 8.5C11.215 8.5 12 9.285 12 10.25ZM11.5 10.25C11.5 9.561 10.939 9 10.25 9C9.561 9 9 9.561 9 10.25C9 10.939 9.561 11.5 10.25 11.5C10.939 11.5 11.5 10.939 11.5 10.25Z" fill="white"/>
</g>
<defs>
<clipPath id="clip0_340_281">
<rect width="12" height="12" fill="white"/>
</clipPath>
</defs>
</svg>
