<svg width="12" height="12" viewBox="0 0 12 12" fill="none" xmlns="http://www.w3.org/2000/svg">
<g clip-path="url(#clip0_343_168)">
<path d="M7.84745 7.15245C8.37795 7.68245 9.32395 7.59645 9.96045 6.96045C10.5964 6.32395 10.6825 5.37795 10.1525 4.84745C9.62195 4.31745 8.67595 4.40345 8.03945 5.03945C7.40345 5.67595 7.31745 6.62195 7.84745 7.15245Z" stroke="white" stroke-linecap="round" stroke-linejoin="round"/>
<path d="M6.33994 4.61644C5.79794 4.36794 5.06744 4.52094 4.54444 5.03944C3.90244 5.67594 3.81594 6.62194 4.35044 7.15244C4.88544 7.68244 5.83944 7.59644 6.48094 6.96044C6.74741 6.70037 6.92843 6.36536 6.99994 5.99994H5.78644" stroke="white" stroke-linecap="round" stroke-linejoin="round"/>
<path d="M2.75 7.5H2" stroke="white" stroke-linecap="round" stroke-linejoin="round"/>
<path d="M3 4.5H2" stroke="white" stroke-linecap="round" stroke-linejoin="round"/>
<path d="M2.5 6H1" stroke="white" stroke-linecap="round" stroke-linejoin="round"/>
</g>
<defs>
<clipPath id="clip0_343_168">
<rect width="12" height="12" fill="white"/>
</clipPath>
</defs>
</svg>
