<svg viewBox="0 0 12 12" fill="none" xmlns="http://www.w3.org/2000/svg">
<g clip-path="url(#clip0_338_4)">
<path d="M0 7.57505V4.42505H0.7375V5.53755H1.95V4.42505H2.6875V7.57505H1.95V6.28755H0.7375V7.57505H0ZM3.95 7.57505V5.17505H3.075V4.42505H5.5625V5.17505H4.6875V7.57505H3.95ZM5.95 7.57505V4.92309C5.95 4.77106 5.995 4.65005 6.085 4.56005C6.175 4.47005 6.29667 4.42505 6.45 4.42505H8.95C9.09979 4.42505 9.21849 4.47005 9.30609 4.56005C9.3937 4.65005 9.4375 4.77106 9.4375 4.92309V7.57505H8.7V5.17505H8V7.05005H7.4V5.17505H6.6875V7.57505H5.95ZM9.95 7.57505V4.42505H10.7V6.82505H12V7.57505H9.95Z" fill="white"/>
</g>
<defs>
<clipPath id="clip0_338_4">
<rect width="12" height="12" fill="white"/>
</clipPath>
</defs>
</svg>
