<svg width="12" height="12" viewBox="0 0 12 12" fill="none" xmlns="http://www.w3.org/2000/svg">
<path d="M4.46388 9.1987C4.46388 9.1987 4.01697 9.45876 4.78235 9.54651C5.70972 9.65245 6.18363 9.63726 7.20532 9.44413C7.20532 9.44413 7.47447 9.61241 7.84966 9.75829C5.5585 10.7399 2.66453 9.70138 4.46388 9.1987ZM4.18375 7.9176C4.18375 7.9176 3.68238 8.28876 4.44841 8.36807C5.43906 8.47035 6.22122 8.4787 7.57535 8.21807C7.57535 8.21807 7.76219 8.40791 8.05647 8.5116C5.28691 9.3216 2.20216 8.57535 4.18375 7.9176Z" fill="#0074BD"/>
<path d="M6.54399 5.74422C7.10883 6.39437 6.39586 6.9789 6.39586 6.9789C6.39586 6.9789 7.82921 6.23912 7.17108 5.31231C6.55617 4.4484 6.0848 4.01931 8.63686 2.53918C8.63686 2.53928 4.63083 3.5395 6.54399 5.74422Z" fill="#EA2D2E"/>
<path d="M9.57398 10.1465C9.57398 10.1465 9.90482 10.4193 9.20948 10.6302C7.88742 11.0307 3.70579 11.1514 2.54442 10.6462C2.12713 10.4645 2.90995 10.2126 3.15623 10.1595C3.41301 10.1039 3.55963 10.114 3.55963 10.114C3.09529 9.78709 0.558415 10.7562 2.27123 11.0342C6.94195 11.7913 10.7853 10.6932 9.57398 10.1465ZM4.6792 6.59012C4.6792 6.59012 2.55238 7.09534 3.9261 7.279C4.50623 7.35662 5.66217 7.33881 6.73963 7.24843C7.61995 7.17447 8.50335 7.0165 8.50335 7.0165C8.50335 7.0165 8.19323 7.14953 7.9686 7.30272C5.80842 7.87093 1.63635 7.60628 2.83757 7.0254C3.85307 6.53425 4.6792 6.59012 4.6792 6.59012ZM8.49454 8.72265C10.6903 7.582 9.67495 6.48578 8.96629 6.63343C8.79304 6.66953 8.71532 6.70093 8.71532 6.70093C8.71532 6.70093 8.77982 6.59978 8.90282 6.55628C10.3047 6.06362 11.3826 8.00968 8.45067 8.7805C8.45067 8.78031 8.48432 8.74984 8.49454 8.72265Z" fill="#0074BD"/>
<path d="M7.17102 0.148804C7.17102 0.148804 8.38677 1.3653 6.01761 3.23533C4.11767 4.7359 5.58439 5.59127 6.01695 6.56899C4.9078 5.5684 4.09423 4.68743 4.63995 3.86758C5.44133 2.6644 7.66142 2.0808 7.17102 0.148804Z" fill="#EA2D2E"/>
<path d="M4.89513 11.8144C7.00225 11.9492 10.2389 11.7394 10.3155 10.7423C10.3155 10.7423 10.1682 11.1203 8.57388 11.4202C6.77519 11.7588 4.55632 11.7194 3.24072 11.5022C3.24072 11.5022 3.51025 11.7254 4.89513 11.8144Z" fill="#0074BD"/>
</svg>
