<svg width="12" height="12" viewBox="0 0 12 12" fill="none" xmlns="http://www.w3.org/2000/svg">
<path d="M3.2123 7.57505C3.10814 7.57505 3.02376 7.54154 2.95918 7.47452C2.8946 7.40752 2.8623 7.32019 2.8623 7.21255V6.25005H3.5998V6.76255H4.5748V4.42505H5.3248V7.21255C5.3248 7.32019 5.2913 7.40752 5.22428 7.47452C5.15727 7.54154 5.06995 7.57505 4.9623 7.57505H3.2123ZM6.4248 7.57505C6.27147 7.57505 6.1498 7.53005 6.0598 7.44005C5.9698 7.35005 5.9248 7.22838 5.9248 7.07505V6.50005H6.6748V6.82505H7.8248V6.23755H6.42844C6.28102 6.23755 6.16022 6.19047 6.06605 6.0963C5.97189 6.00213 5.9248 5.88104 5.9248 5.73302V4.92957C5.9248 4.77322 5.9698 4.65005 6.0598 4.56005C6.1498 4.47005 6.27147 4.42505 6.4248 4.42505H8.0748C8.22814 4.42505 8.3498 4.47005 8.43981 4.56005C8.5298 4.65005 8.5748 4.77172 8.5748 4.92505V5.50005H7.8248V5.17505H6.6748V5.76255H8.07117C8.21859 5.76255 8.33939 5.80963 8.43356 5.9038C8.52772 5.99797 8.5748 6.11906 8.5748 6.26707V7.07052C8.5748 7.22687 8.5298 7.35005 8.43981 7.44005C8.3498 7.53005 8.22814 7.57505 8.0748 7.57505H6.4248Z" fill="white"/>
</svg>
