<svg width="12" height="12" viewBox="0 0 12 12" fill="none" xmlns="http://www.w3.org/2000/svg">
<path d="M8.58958 4.75987C7.95883 1.97849 6.46858 1.06649 6.30846 0.716991C6.13258 0.469116 5.94321 0.000366211 5.94321 0.000366211C5.94133 0.0101162 5.94133 0.0161162 5.93946 0.0258662V0.0318662C5.93946 0.0397412 5.93758 0.0434912 5.93758 0.0513662V0.0592412H5.93571V0.0708662V0.0843662H5.93383C5.93383 0.0881162 5.93383 0.0941162 5.93196 0.0959912V0.107616C5.93196 0.111366 5.93196 0.115491 5.93008 0.117366V0.127116C5.93008 0.133116 5.93008 0.138741 5.92821 0.142866V0.144741C5.92821 0.152616 5.92633 0.162366 5.92446 0.170241V0.173991C5.92258 0.175866 5.92258 0.177741 5.92258 0.179991V0.187866H5.92071V0.199491H5.91883V0.207366H5.91508V0.218991H5.91321V0.228741H5.91133V0.236616H5.90946V0.244491H5.90758V0.252366H5.90571V0.260241H5.90383V0.266241H5.90196V0.274116H5.90008V0.275991V0.281991H5.89821C5.89633 0.281991 5.89633 0.283866 5.89633 0.283866V0.287616L5.89446 0.291366C5.89446 0.295116 5.89258 0.299241 5.89071 0.302991C5.88883 0.304866 5.88883 0.304866 5.88883 0.306741V0.310491H5.88696V0.314241H5.88321V0.323991H5.87946V0.329991H5.87758V0.331866H5.87571V0.335616H5.87383V0.341616H5.87196V0.345366H5.86821V0.351366H5.86633V0.355116H5.86446V0.358866H5.86258V0.364866H5.86071V0.368616H5.85883V0.370491H5.85696V0.374241H5.85321V0.380241H5.85133V0.382116H5.84946V0.385866H5.84758V0.391866H5.84571V0.393741H5.84383V0.397491H5.84196V0.399366H5.84008V0.405366H5.83633V0.407241H5.83446V0.410991H5.83258V0.412866H5.83071V0.416616H5.82883V0.418491V0.420366C5.82696 0.420366 5.82696 0.422241 5.82696 0.422241V0.424116H5.82508C5.82321 0.427866 5.82133 0.430116 5.81908 0.433866C5.81908 0.433866 5.81533 0.437616 5.81533 0.439866C5.81346 0.439866 5.81346 0.441741 5.81346 0.441741V0.443616H5.81158V0.445491H5.80971V0.447366V0.449241H5.80596V0.451116H5.80408V0.452991H5.80221V0.454866V0.458616H5.80033V0.460491H5.79846V0.462366H5.79658V0.466116H5.79471V0.462366H5.79096V0.464241H5.78908V0.467991H5.78721V0.471741H5.78533V0.473616H5.78346V0.475491H5.78158V0.477366H5.77971V0.481116H5.77596V0.482991H5.77408V0.486741H5.77221V0.488616H5.77033V0.490491H5.76846V0.496491H5.76658V0.498366H5.76471V0.500241H5.76283V0.502116H5.76096V0.503991H5.75721V0.507741H5.75533V0.509616H5.75346V0.511491H5.75158V0.515241H5.74971V0.517116H5.74596V0.518991H5.74408V0.520866H5.74221V0.524616H5.74033V0.528366H5.73846V0.530241H5.73658V0.532116H5.73283V0.533991H5.73096V0.535866H5.72908V0.539616H5.72721V0.541491H5.72533V0.545241H5.72346V0.547116H5.72158V0.548991H5.71971V0.550866H5.71783V0.552741H5.71408V0.554616C5.71221 0.554616 5.71221 0.556491 5.71221 0.556491L5.71033 0.558366L5.70846 0.560241V0.563991H5.70658V0.565866H5.70471V0.567741H5.70283V0.569616H5.70096L5.69721 0.573366V0.575241C5.69346 0.577116 5.69346 0.578991 5.68933 0.583116C5.68933 0.583116 5.68558 0.586866 5.68333 0.586866C5.67733 0.590616 5.66983 0.598491 5.66383 0.604491C5.66008 0.606366 5.65596 0.610491 5.65221 0.612366C5.64433 0.620241 5.63646 0.625866 5.62858 0.631866C5.61696 0.643491 5.60496 0.651366 5.59146 0.662991H5.58958C5.56221 0.686616 5.53108 0.713616 5.49771 0.743241H5.49583C5.41183 0.817491 5.31208 0.913116 5.19883 1.02637L5.18908 1.03612C4.50921 1.73924 3.43708 3.20587 3.32571 5.57512C3.31408 5.77049 3.31596 5.96174 3.32758 6.14737V6.15112C3.38233 7.08487 3.67521 7.88174 4.04233 8.53012C4.18671 8.78812 4.34496 9.02249 4.50508 9.23324C5.05596 9.95999 5.61846 10.3916 5.76096 10.497C5.98183 11.0066 5.96196 11.8856 5.96196 11.8856L6.28408 11.9929C6.28408 11.9929 6.21771 11.1431 6.30958 10.731C6.33883 10.6039 6.40521 10.4947 6.48358 10.401C6.53833 10.3639 6.69471 10.2506 6.88221 10.0789C6.89196 10.0691 6.89796 10.0612 6.90583 10.0515C7.66558 9.34237 9.08571 7.59637 8.59933 4.75274L8.58958 4.75987Z" fill="white"/>
</svg>
