<svg width="13" height="12" viewBox="0 0 13 12" fill="none" xmlns="http://www.w3.org/2000/svg">
<g clip-path="url(#clip0_340_237)">
<path d="M11.2212 9.24817C10.5584 9.23165 10.0447 9.29797 9.61389 9.48019C9.48962 9.52988 9.29076 9.52993 9.27418 9.68731C9.3405 9.75363 9.34877 9.86132 9.40677 9.95243C9.50625 10.1181 9.68016 10.3418 9.83759 10.4578C10.0115 10.5904 10.1856 10.7229 10.3678 10.8389C10.6909 11.0378 11.0555 11.1537 11.3703 11.3526C11.5526 11.4685 11.7348 11.6177 11.917 11.742C12.0082 11.8082 12.0662 11.9159 12.1822 11.9574V11.9325C12.1242 11.8579 12.1076 11.7502 12.0496 11.6674C11.9668 11.5845 11.8839 11.51 11.8011 11.4271C11.5608 11.104 11.2626 10.8223 10.9395 10.5904C10.6744 10.4081 10.0944 10.1596 9.9867 9.853C9.9867 9.853 9.97839 9.84474 9.97013 9.83647C10.1524 9.81989 10.3678 9.75363 10.5418 9.70389C10.8235 9.6293 11.0803 9.64588 11.3703 9.57135C11.5028 9.53819 11.6354 9.49677 11.7679 9.45534V9.38081C11.6189 9.23164 11.5111 9.03284 11.3537 8.89199C10.9312 8.52739 10.4672 8.1712 9.9867 7.87297C9.72984 7.70728 9.39845 7.59953 9.12507 7.45873C9.02569 7.40894 8.85994 7.38415 8.80199 7.3013C8.65283 7.11903 8.56998 6.8788 8.46229 6.66336C8.22211 6.20765 7.99004 5.70235 7.78293 5.22184C7.63386 4.89871 7.5427 4.57559 7.36042 4.27736C6.5071 2.86895 5.5792 2.01562 4.15421 1.17883C3.84766 1.00487 3.48316 0.930288 3.09377 0.839177C2.8867 0.83086 2.67953 0.814333 2.47241 0.806017C2.33987 0.748012 2.20728 0.590634 2.09128 0.51605C1.61914 0.217766 0.401212 -0.428384 0.0532422 0.424938C-0.170457 0.96345 0.384633 1.49364 0.57517 1.76708C0.716075 1.95762 0.898298 2.173 0.997726 2.38844C1.05573 2.52919 1.07226 2.67841 1.13026 2.82752C1.26285 3.19197 1.38707 3.59799 1.56108 3.93771C1.65224 4.11166 1.75162 4.29394 1.86763 4.45132C1.93389 4.54243 2.04985 4.58391 2.07475 4.73302C1.95879 4.89872 1.95047 5.14726 1.88415 5.35438C1.58592 6.29055 1.70193 7.45042 2.12443 8.13804C2.25697 8.34511 2.57183 8.80088 2.99434 8.62687C3.36715 8.47775 3.2843 8.00551 3.392 7.59127C3.41689 7.49179 3.40031 7.42557 3.45 7.3593C3.45004 7.36757 3.45 7.37588 3.45 7.37588C3.56601 7.60785 3.68196 7.83155 3.78965 8.06351C4.04651 8.46943 4.49386 8.89198 4.86667 9.17369C5.06558 9.32275 5.22296 9.57961 5.4715 9.67078V9.64588H5.45492C5.40518 9.5713 5.33065 9.53819 5.26438 9.48019C5.11527 9.33107 4.94952 9.14879 4.83356 8.9831C4.48565 8.51912 4.17905 8.00551 3.90566 7.47526C3.77313 7.21846 3.65712 6.93675 3.54943 6.67994C3.49969 6.58046 3.49969 6.4314 3.41684 6.38171C3.29257 6.56394 3.11034 6.72137 3.01918 6.94507C2.86185 7.3013 2.84522 7.74039 2.78722 8.19604C2.75411 8.20436 2.77064 8.19604 2.75406 8.21263C2.48899 8.14631 2.39782 7.87297 2.29839 7.64095C2.04985 7.05276 2.00843 6.10827 2.22386 5.42896C2.28186 5.25495 2.53041 4.70818 2.43098 4.54248C2.38129 4.38505 2.21554 4.29394 2.12443 4.16967C2.01674 4.01223 1.90073 3.81343 1.8262 3.63942C1.62735 3.17549 1.52792 2.66183 1.31254 2.19785C1.21311 1.98241 1.03915 1.75877 0.898298 1.55996C0.740919 1.33626 0.566907 1.17883 0.442633 0.913707C0.401262 0.822596 0.343205 0.673481 0.409473 0.574052C0.426053 0.507785 0.459161 0.482941 0.525481 0.466361C0.633173 0.375197 0.93972 0.491204 1.04741 0.540892C1.35396 0.665111 1.61076 0.781172 1.86762 0.955131C1.98358 1.03798 2.10785 1.19541 2.25697 1.23683H2.43098C2.6961 1.29479 2.99433 1.25341 3.24287 1.32795C3.68201 1.46875 4.07961 1.67592 4.4359 1.89962C5.52124 2.58724 6.41593 3.56489 7.02077 4.73302C7.12019 4.92351 7.16157 5.09757 7.25273 5.29638C7.42674 5.70235 7.64212 6.11659 7.81608 6.51425C7.99004 6.90359 8.15574 7.3013 8.40428 7.62443C8.52861 7.79834 9.02564 7.8895 9.24934 7.98067C9.41503 8.0552 9.67189 8.12152 9.82101 8.21263C10.1027 8.38654 10.3844 8.58544 10.6495 8.77598C10.7821 8.87536 11.1963 9.08253 11.2212 9.24817Z" fill="white"/>
<path d="M2.77081 2.04871C2.62996 2.04871 2.53058 2.06534 2.43115 2.09018C2.43115 2.09014 2.43115 2.0985 2.43115 2.10676H2.44773C2.51405 2.2393 2.62996 2.33046 2.7128 2.44642C2.77912 2.57895 2.83707 2.71154 2.9034 2.84413C2.91166 2.83581 2.91992 2.82755 2.91992 2.82755C3.03598 2.74465 3.09393 2.61211 3.09393 2.41331C3.04419 2.35531 3.03593 2.2973 2.99451 2.2393C2.94482 2.1564 2.83707 2.11503 2.77081 2.04871Z" fill="white"/>
</g>
<defs>
<clipPath id="clip0_340_237">
<rect width="12.1905" height="12" fill="white"/>
</clipPath>
</defs>
</svg>
