<svg width="12" height="12" viewBox="0 0 12 12" fill="none" xmlns="http://www.w3.org/2000/svg">
<g clip-path="url(#clip0_343_179)">
<path fill-rule="evenodd" clip-rule="evenodd" d="M6.93308 0.75C6.861 0.75082 6.78955 0.763489 6.72158 0.7875C7.32571 1.18425 6.61658 1.76025 6.94658 2.25C6.9235 2.08606 6.9495 1.91896 7.02132 1.76979C7.09313 1.62062 7.20754 1.49607 7.35008 1.41188C7.45696 1.323 7.52521 1.29113 7.50233 1.14413C7.46633 0.903375 7.14533 0.75 6.93308 0.75ZM7.79558 0.90525C7.71233 1.32638 7.60808 1.34175 7.29946 1.61288C7.17896 1.70768 7.0939 1.8403 7.05798 1.98935C7.02206 2.13841 7.03738 2.29521 7.10146 2.4345C5.82646 1.9395 4.19221 1.64025 2.99408 2.49675C2.56321 2.80463 2.29996 3.24675 1.76858 3.42712C1.42508 3.5445 1.08758 3.51 0.873082 3.8505C0.794359 3.94882 0.753235 4.07197 0.757083 4.19787C0.760932 4.32376 0.809501 4.44417 0.894082 4.5375C0.957832 4.60313 1.08158 4.64512 1.13258 4.71187C1.16221 4.74937 1.16146 4.78687 1.18958 4.83675C1.23917 4.95305 1.31102 5.05853 1.40108 5.14725C1.45583 5.19263 1.64558 5.23688 1.67783 5.28525C1.71796 5.34562 1.61296 5.58525 1.70108 5.62275C1.76071 5.65013 1.93433 5.34375 1.95121 5.31675C1.91671 5.55788 1.87133 5.98575 2.14246 5.6295C2.27108 5.46037 2.27896 5.4045 2.49533 5.367C2.92237 5.29386 3.35994 5.31003 3.78042 5.41449C4.2009 5.51895 4.59516 5.70943 4.93832 5.97391C5.28149 6.2384 5.56611 6.57114 5.77422 6.95114C5.98233 7.33115 6.10942 7.75016 6.14746 8.18175C6.10696 7.99425 5.86208 7.69425 5.63408 7.7655C5.53696 7.7955 5.50096 7.96312 5.43721 8.06025C5.35672 8.18349 5.25739 8.29332 5.14283 8.38575C5.16239 8.20396 5.15328 8.02022 5.11583 7.84125C5.04758 8.12175 4.91071 8.58712 4.56608 8.51175C4.45128 8.49422 4.34371 8.44478 4.25566 8.36906C4.1676 8.29333 4.1026 8.19439 4.06808 8.0835C4.02346 7.7985 4.32458 7.46437 3.84046 7.44075C2.86921 7.39312 3.09383 8.8215 3.66721 9.19388C3.53543 9.20845 3.40689 9.24429 3.28658 9.3C3.65052 9.51148 4.0606 9.63089 4.48118 9.64785C4.90176 9.66481 5.32012 9.5788 5.6999 9.39729C6.07968 9.21579 6.40939 8.94429 6.66038 8.60639C6.91136 8.26848 7.07604 7.8744 7.14008 7.45837C7.27364 8.06696 7.18784 8.70317 6.89783 9.25463C6.77645 9.48516 6.62095 9.69604 6.43658 9.88013C6.32408 9.99263 6.10133 10.1164 6.02821 10.233C6.48332 10.1728 6.92807 10.0507 7.35008 9.87C6.91326 10.4652 6.33268 10.94 5.66258 11.25C6.38212 11.1991 7.07766 10.9698 7.68649 10.583C8.29533 10.1962 8.79831 9.66387 9.15008 9.03412C9.03798 9.66397 8.78899 10.2615 8.42071 10.7846C8.91606 10.453 9.33749 10.0225 9.65854 9.52029C9.9796 9.01802 10.1933 8.45481 10.2863 7.866C10.3785 8.29704 10.4049 8.73955 10.3647 9.1785C10.7717 8.61315 11.0468 7.96369 11.1695 7.27795C11.2922 6.59221 11.2595 5.88768 11.0738 5.21625C10.9317 4.69434 10.7186 4.19442 10.4405 3.7305C10.3328 3.54972 10.215 3.37519 10.0876 3.20775C10.0377 3.14287 9.77108 2.9055 9.77108 2.83275C9.76883 2.84 9.76696 2.84 9.76546 2.83275C9.76546 4.0575 8.45296 4.82438 7.35383 4.50638C7.77931 4.47298 8.18067 4.29543 8.49158 4.00306C8.8025 3.71069 9.00437 3.321 9.06383 2.89838C9.114 2.47101 9.01528 2.03942 8.78433 1.67635C8.55337 1.31328 8.20393 1.04095 7.79558 0.90525Z" fill="white"/>
</g>
<defs>
<clipPath id="clip0_343_179">
<rect width="12" height="12" fill="white"/>
</clipPath>
</defs>
</svg>
