<svg width="12" height="12" viewBox="0 0 12 12" fill="none" xmlns="http://www.w3.org/2000/svg">
<g clip-path="url(#clip0_339_86)">
<path d="M8.90588 11.2518C8.86125 11.2755 8.865 11.283 8.90775 11.2612C8.92163 11.2556 8.93325 11.2477 8.94338 11.2383C8.94338 11.2305 8.94338 11.2305 8.90588 11.2518ZM8.99588 11.2031C8.9745 11.2207 8.9745 11.2207 9 11.2091C9.0135 11.2012 9.0255 11.1937 9.0255 11.1915C9.0255 11.1813 9.0195 11.1836 8.99588 11.2031ZM9.05437 11.1678C9.033 11.1855 9.033 11.1855 9.0585 11.1738C9.07238 11.166 9.084 11.1577 9.084 11.1558C9.084 11.1465 9.078 11.1483 9.05437 11.1678ZM9.11362 11.133C9.09225 11.1506 9.09225 11.1506 9.117 11.1386C9.13087 11.1311 9.1425 11.1232 9.1425 11.121C9.1425 11.1116 9.1365 11.1135 9.11362 11.133ZM9.1935 11.0801C9.15263 11.1075 9.13838 11.1251 9.17587 11.1056C9.201 11.0902 9.24375 11.0565 9.23625 11.0565C9.22012 11.0625 9.20662 11.0726 9.19312 11.0801H9.1935ZM5.60738 0.00409903C5.58 0.00597403 5.49787 0.013474 5.42587 0.019474C3.72038 0.173974 2.12475 1.09197 1.11338 2.5061C0.55425 3.28122 0.19125 4.1816 0.054375 5.12697C0.006 5.45697 0 5.55447 0 6.00185C0 6.44885 0.006 6.54485 0.054375 6.87485C0.381 9.12897 1.9845 11.0212 4.158 11.7225C4.54913 11.8473 4.959 11.9336 5.42587 11.9865C5.60738 12.006 6.39225 12.006 6.57375 11.9865C7.38075 11.8965 8.06213 11.6973 8.73638 11.3535C8.83988 11.301 8.85938 11.2871 8.8455 11.2755C8.5155 10.8401 8.1915 10.4043 7.86713 9.96485L6.90825 8.66997L5.70712 6.8906C5.30662 6.2951 4.90462 5.7011 4.49625 5.1116C4.49213 5.1116 4.48688 5.90247 4.48462 6.86697C4.4805 8.55635 4.4805 8.62497 4.45913 8.66397C4.43775 8.71085 4.4025 8.74985 4.35563 8.7716C4.3185 8.78922 4.28513 8.79297 4.10775 8.79297H3.90488L3.852 8.75997C3.819 8.7386 3.79163 8.70897 3.774 8.6741L3.7485 8.62122L3.75038 6.2696L3.7545 3.91797L3.79163 3.8711C3.81525 3.84222 3.8445 3.8186 3.8775 3.80097C3.92663 3.77735 3.94613 3.7736 4.149 3.7736C4.38713 3.7736 4.4265 3.78297 4.48912 3.8516C4.97512 4.5761 5.45962 5.30247 5.93625 6.0311C6.71588 7.2131 7.78013 8.82597 8.30325 9.61722L9.25463 11.0568L9.3015 11.0257C9.75863 10.7208 10.1745 10.3578 10.5334 9.94385C11.2894 9.07835 11.7799 8.01372 11.946 6.87747C11.9944 6.54747 12.0004 6.4496 12.0004 6.0026C12.0004 5.55522 11.9944 5.4596 11.946 5.1296C11.6194 2.87547 10.0159 0.983224 7.84237 0.281599C7.43587 0.152974 7.01775 0.065224 6.59437 0.020224C6.48075 0.00859903 5.70525 -0.00527597 5.60775 0.00484903L5.60738 0.00409903ZM8.0625 3.63297C8.11913 3.65997 8.16187 3.71097 8.18137 3.76947C8.1915 3.80097 8.19337 4.4531 8.1915 5.92197L8.18738 8.03097L7.8165 7.46097L7.44338 6.8906V5.35947C7.44338 4.36685 7.4475 3.81035 7.45275 3.78297C7.47038 3.72035 7.51312 3.66785 7.57013 3.63485C7.61663 3.61122 7.63462 3.60935 7.82025 3.60935C7.99388 3.60935 8.0235 3.61122 8.0625 3.63297Z" fill="black"/>
</g>
<defs>
<clipPath id="clip0_339_86">
<rect width="12" height="12" fill="white"/>
</clipPath>
</defs>
</svg>
