<svg width="12" height="12" viewBox="0 0 12 12" fill="none" xmlns="http://www.w3.org/2000/svg">
<path d="M5.99987 11.25C5.85822 11.25 5.71905 11.2128 5.59637 11.142L4.31237 10.3819C4.12074 10.2746 4.21412 10.2367 4.27749 10.2146C4.48129 10.1516 4.67643 10.0635 4.85837 9.9521C4.87359 9.94506 4.89037 9.94201 4.9071 9.94326C4.92384 9.94451 4.93997 9.95 4.95399 9.95923L5.94062 10.5454C5.95899 10.5551 5.97946 10.5602 6.00024 10.5602C6.02102 10.5602 6.04149 10.5551 6.05987 10.5454L9.90737 8.3246C9.92537 8.31381 9.94026 8.29853 9.95058 8.28026C9.96091 8.26198 9.9663 8.24134 9.96624 8.22035V3.7781C9.96625 3.75678 9.96077 3.73582 9.95033 3.71723C9.93989 3.69864 9.92483 3.68306 9.90662 3.67198L6.05912 1.4531C6.04097 1.44288 6.0205 1.43752 5.99968 1.43752C5.97886 1.43752 5.95838 1.44288 5.94024 1.4531L2.09499 3.67273C2.07665 3.68357 2.06142 3.69897 2.05078 3.71743C2.04013 3.7359 2.03444 3.75679 2.03424 3.7781V8.21848C2.03429 8.23942 2.03991 8.25997 2.05052 8.27802C2.06113 8.29608 2.07635 8.31099 2.09462 8.32123L3.14987 8.93023C3.72174 9.21598 4.07199 8.87923 4.07199 8.54098V4.15685C4.07199 4.14208 4.0749 4.12745 4.08055 4.1138C4.08621 4.10015 4.09449 4.08775 4.10494 4.0773C4.11539 4.06685 4.12779 4.05857 4.14144 4.05291C4.15509 4.04726 4.16972 4.04435 4.18449 4.04435H4.67199C4.70183 4.04435 4.73044 4.0562 4.75154 4.0773C4.77264 4.0984 4.78449 4.12701 4.78449 4.15685V8.54135C4.78449 9.30448 4.36899 9.74135 3.64524 9.74135C3.33301 9.74679 3.02567 9.66329 2.75912 9.5006L1.74774 8.92048C1.62496 8.84898 1.52308 8.74652 1.45228 8.62334C1.38148 8.50016 1.34422 8.36056 1.34424 8.21848V3.7781C1.34388 3.6358 1.38097 3.49591 1.4518 3.37249C1.52263 3.24906 1.62469 3.14646 1.74774 3.07498L5.59562 0.853476C5.71956 0.785664 5.85858 0.750122 5.99987 0.750122C6.14115 0.750122 6.28017 0.785664 6.40412 0.853476L10.2516 3.07498C10.3744 3.14634 10.4763 3.24865 10.5472 3.3717C10.618 3.49474 10.6554 3.63423 10.6555 3.77623V8.21848C10.6553 8.36056 10.6179 8.50011 10.547 8.62326C10.4762 8.74641 10.3743 8.84888 10.2516 8.92048L6.40412 11.142C6.2812 11.2129 6.14177 11.2501 5.99987 11.25Z" fill="white"/>
<path d="M5.27002 6.7323C5.27002 6.70246 5.28187 6.67385 5.30297 6.65275C5.32407 6.63165 5.35268 6.6198 5.38252 6.6198H5.88014C5.90673 6.61988 5.93243 6.62938 5.95268 6.64661C5.97293 6.66384 5.98643 6.68769 5.99077 6.71392C6.06577 7.22055 6.29077 7.47592 7.30814 7.47592C8.11852 7.47592 8.46389 7.29255 8.46389 6.86242C8.46389 6.61455 8.36602 6.43042 7.10639 6.30705C6.05339 6.2028 5.40239 5.96955 5.40239 5.12805C5.40239 4.3518 6.05677 3.88867 7.15364 3.88867C8.38627 3.88867 8.99639 4.31655 9.07364 5.23455C9.07482 5.24987 9.07285 5.26528 9.06785 5.27981C9.06284 5.29435 9.05491 5.3077 9.04455 5.31905C9.03418 5.3304 9.0216 5.33951 9.00758 5.3458C8.99355 5.3521 8.97839 5.35546 8.96302 5.35567H8.46202C8.43689 5.35532 8.41259 5.34656 8.39302 5.33079C8.37344 5.31502 8.35971 5.29315 8.35402 5.26867C8.23439 4.7358 7.94152 4.56555 7.15402 4.56555C6.26902 4.56555 6.16627 4.8738 6.16627 5.1048C6.16627 5.38455 6.28777 5.4663 7.48252 5.62417C8.66489 5.78055 9.22664 6.0018 9.22664 6.8328C9.22664 7.6713 8.52764 8.1513 7.30852 8.1513C5.62289 8.15355 5.27002 7.38067 5.27002 6.7323Z" fill="white"/>
</svg>
