<svg width="12" height="12" viewBox="0 0 12 12" fill="none" xmlns="http://www.w3.org/2000/svg">
<path d="M1.4248 7.57505V4.42505H3.3248C3.54147 4.42505 3.72064 4.49588 3.8623 4.63755C4.00397 4.77922 4.07481 4.95838 4.07481 5.17505V5.90005C4.07481 6.12005 4.00397 6.29797 3.8623 6.4338C3.72064 6.56963 3.54147 6.63755 3.3248 6.63755H2.1748V7.57505H1.4248ZM4.64981 7.57505V4.42505H5.39981V5.53755H6.59981V4.42505H7.34981V7.57505H6.59981V6.28755H5.39981V7.57505H4.64981ZM8.17481 7.57505V4.42505H10.0748C10.2915 4.42505 10.4706 4.49588 10.6123 4.63755C10.754 4.77922 10.8248 4.95838 10.8248 5.17505V5.90005C10.8248 6.12005 10.754 6.29797 10.6123 6.4338C10.4706 6.56963 10.2915 6.63755 10.0748 6.63755H8.92481V7.57505H8.17481ZM2.1748 5.90005H3.3248V5.17505H2.1748V5.90005ZM8.92481 5.90005H10.0748V5.17505H8.92481V5.90005Z" fill="white"/>
</svg>
