<svg width="12" height="12" viewBox="0 0 12 12" fill="none" xmlns="http://www.w3.org/2000/svg">
<g clip-path="url(#clip0_343_185)">
<path d="M5.95687 0.787459C3.29438 0.787459 3.46275 1.93871 3.46275 1.93871V3.13496H5.99475V3.50996H2.45438C2.45438 3.50996 0.75 3.29996 0.75 6.00183C0.75 8.70371 2.25487 8.59383 2.25487 8.59383H3.12375V7.33346C3.12375 7.33346 3.075 5.82858 4.58625 5.82858H7.122C7.122 5.82858 8.5365 5.85108 8.5365 4.45908V2.17496C8.5365 2.17496 8.751 0.782959 5.97075 0.782959L5.95687 0.787459ZM4.55737 1.58883C4.64739 1.58656 4.73606 1.61104 4.81216 1.65916C4.88827 1.70728 4.94839 1.77689 4.98493 1.85919C5.02148 1.94149 5.03279 2.03277 5.01745 2.1215C5.00211 2.21022 4.9608 2.29241 4.89875 2.35766C4.8367 2.42291 4.7567 2.46829 4.66885 2.48807C4.58101 2.50785 4.48927 2.50113 4.40524 2.46877C4.32122 2.43641 4.24867 2.37986 4.19679 2.30627C4.1449 2.23267 4.116 2.14535 4.11375 2.05533V2.04783C4.11375 1.92709 4.16171 1.8113 4.24709 1.72592C4.33247 1.64055 4.44826 1.59258 4.569 1.59258L4.55737 1.58883Z" fill="url(#paint0_linear_343_185)"/>
<path d="M6.032 11.2163C8.6945 11.2163 8.52612 10.0613 8.52612 10.0613V8.86879H5.9945V8.49379H9.54575C9.54575 8.49379 11.2501 8.68429 11.2501 5.99817C11.2501 3.31204 9.74525 3.40617 9.74525 3.40617H8.86512V4.65004C8.86512 4.65004 8.91387 6.15492 7.40262 6.15492H4.86575C4.86575 6.15492 3.45012 6.13354 3.45012 7.52554V9.82504C3.45012 9.82504 3.23562 11.217 6.01587 11.217H6.03087L6.032 11.2163ZM7.4315 10.4112C7.34148 10.4134 7.25282 10.389 7.17671 10.3408C7.1006 10.2927 7.04048 10.2231 7.00394 10.1408C6.9674 10.0585 6.95608 9.96723 6.97142 9.8785C6.98676 9.78978 7.02807 9.70759 7.09012 9.64234C7.15217 9.57709 7.23218 9.53171 7.32002 9.51193C7.40786 9.49215 7.4996 9.49887 7.58363 9.53123C7.66766 9.56359 7.7402 9.62014 7.79209 9.69373C7.84397 9.76732 7.87287 9.85465 7.87512 9.94466V9.95591C7.87512 10.0767 7.82716 10.1924 7.74178 10.2778C7.65641 10.3632 7.54061 10.4112 7.41987 10.4112H7.4315Z" fill="url(#paint1_linear_343_185)"/>
</g>
<defs>
<linearGradient id="paint0_linear_343_185" x1="1.78768" y1="1.80855" x2="6.77018" y2="6.77976" gradientUnits="userSpaceOnUse">
<stop stop-color="#387EB8"/>
<stop offset="1" stop-color="#366994"/>
</linearGradient>
<linearGradient id="paint1_linear_343_185" x1="4.73543" y1="5.047" x2="10.428" y2="10.0167" gradientUnits="userSpaceOnUse">
<stop stop-color="#FFE052"/>
<stop offset="1" stop-color="#FFC331"/>
</linearGradient>
<clipPath id="clip0_343_185">
<rect width="12" height="12" fill="white"/>
</clipPath>
</defs>
</svg>
