<svg width="14" height="12" viewBox="0 0 14 12" fill="none" xmlns="http://www.w3.org/2000/svg">
<g clip-path="url(#clip0_343_162)">
<path d="M11.0781 3.88545C10.9383 3.83734 10.7935 3.79183 10.6443 3.74878C10.6689 3.64874 10.6913 3.55 10.7113 3.45295C11.0397 1.8592 10.825 0.575276 10.092 0.152552C9.38907 -0.252784 8.23954 0.169844 7.07858 1.1802C6.96693 1.27735 6.85498 1.38022 6.74308 1.48802C6.66852 1.41669 6.59407 1.34777 6.51982 1.28184C5.30309 0.201502 4.08351 -0.253767 3.35119 0.17018C2.64897 0.576691 2.44101 1.78371 2.73655 3.29411C2.76509 3.43999 2.79845 3.58898 2.83618 3.74045C2.66357 3.78945 2.49694 3.84169 2.3375 3.89725C0.911017 4.39459 0 5.17404 0 5.98253C0 6.81754 0.977978 7.65507 2.46377 8.16291C2.58102 8.20299 2.70269 8.24088 2.82807 8.27686C2.78737 8.44069 2.75197 8.60123 2.72226 8.75781C2.44046 10.242 2.66053 11.4205 3.36088 11.8244C4.08428 12.2416 5.29834 11.8128 6.48054 10.7794C6.57397 10.6977 6.66775 10.6111 6.76169 10.5203C6.88345 10.6376 7.00502 10.7485 7.12594 10.8526C8.27103 11.838 9.402 12.2359 10.1017 11.8308C10.8244 11.4125 11.0592 10.1465 10.7543 8.60622C10.731 8.48858 10.7039 8.3684 10.6735 8.24609C10.7588 8.22088 10.8425 8.19486 10.9241 8.16781C12.4687 7.65603 13.4737 6.82869 13.4737 5.98253C13.4737 5.17111 12.5333 4.38641 11.0781 3.88545ZM10.7431 7.62145C10.6694 7.64584 10.5938 7.66942 10.5168 7.69227C10.3462 7.15244 10.1161 6.57841 9.83446 5.98533C10.1032 5.40638 10.3245 4.83969 10.4902 4.30336C10.628 4.34324 10.7618 4.38531 10.8907 4.4297C12.1375 4.85892 12.8981 5.49354 12.8981 5.98253C12.8981 6.50339 12.0767 7.17954 10.7431 7.62145ZM10.1897 8.718C10.3245 9.39909 10.3438 10.0149 10.2544 10.4963C10.1742 10.9288 10.0128 11.2172 9.81328 11.3327C9.38866 11.5785 8.48062 11.259 7.50132 10.4163C7.38906 10.3197 7.27598 10.2166 7.16254 10.1074C7.54219 9.69217 7.92163 9.20946 8.29195 8.67337C8.9433 8.61557 9.55868 8.52108 10.1167 8.39207C10.1442 8.50294 10.1686 8.61168 10.1897 8.718ZM4.59348 11.2902C4.17863 11.4368 3.84821 11.441 3.64848 11.3258C3.22348 11.0807 3.0468 10.1344 3.2878 8.86516C3.31541 8.7198 3.34826 8.57048 3.38613 8.41785C3.93808 8.5399 4.54895 8.62773 5.20186 8.68066C5.57468 9.20524 5.96507 9.68742 6.35849 10.1096C6.27253 10.1926 6.18691 10.2716 6.10177 10.346C5.57902 10.803 5.05516 11.1272 4.59348 11.2902ZM2.64993 7.61826C1.99294 7.39371 1.45037 7.10186 1.07847 6.78339C0.744288 6.4972 0.575567 6.21307 0.575567 5.98253C0.575567 5.49191 1.30702 4.86612 2.52697 4.44078C2.67499 4.38917 2.82994 4.34053 2.99075 4.29484C3.15935 4.84329 3.38052 5.4167 3.64743 5.99653C3.37707 6.58498 3.15275 7.16753 2.9825 7.7224C2.86786 7.68944 2.7568 7.65476 2.64993 7.61826ZM3.30142 3.18357C3.04821 1.8895 3.21638 0.913292 3.63956 0.66833C4.09032 0.407371 5.08708 0.779443 6.13763 1.71226C6.20478 1.77188 6.2722 1.83429 6.3398 1.89885C5.94833 2.3192 5.56151 2.79775 5.192 3.31924C4.55832 3.37797 3.95175 3.47232 3.39405 3.59867C3.35898 3.45762 3.32793 3.31905 3.30142 3.18357ZM9.11336 4.61869C8.98004 4.3884 8.84317 4.16356 8.70364 3.94486C9.13353 3.99921 9.54542 4.07135 9.93221 4.15963C9.81609 4.5318 9.67135 4.92092 9.50098 5.31983C9.37876 5.08779 9.24949 4.85384 9.11336 4.61869ZM6.74327 2.3102C7.00876 2.59783 7.27464 2.91896 7.53615 3.26739C7.27262 3.25494 7.00584 3.24847 6.73684 3.24847C6.47039 3.24847 6.20557 3.2548 5.94368 3.26703C6.20545 2.92184 6.47363 2.60114 6.74327 2.3102ZM4.35799 4.62267C4.22482 4.8536 4.09795 5.08628 3.97765 5.3194C3.81003 4.92188 3.66664 4.53098 3.5495 4.15354C3.93393 4.06751 4.34387 3.99717 4.77103 3.94385C4.62953 4.16457 4.49153 4.39111 4.35799 4.62267ZM4.78333 8.06226C4.342 8.01302 3.92589 7.9463 3.54157 7.86265C3.66057 7.47846 3.80713 7.07922 3.9783 6.67314C4.09891 6.90609 4.22628 7.13887 4.36027 7.3703C4.49676 7.60608 4.63819 7.83703 4.78333 8.06226ZM6.75919 9.69543C6.48639 9.40108 6.21428 9.07549 5.94852 8.72527C6.20651 8.73539 6.46953 8.74057 6.73684 8.74057C7.01147 8.74057 7.28296 8.73438 7.55018 8.72249C7.2878 9.07902 7.02289 9.40511 6.75919 9.69543ZM9.50647 6.65244C9.68656 7.06291 9.83837 7.46007 9.95891 7.83771C9.56825 7.92683 9.14646 7.99861 8.70205 8.05194C8.84192 7.83029 8.97999 7.60159 9.11567 7.36634C9.25292 7.12834 9.38324 6.88997 9.50647 6.65244ZM8.61708 7.07879C8.40646 7.44398 8.19023 7.79259 7.97072 8.12166C7.5709 8.15025 7.15784 8.16498 6.73684 8.16498C6.31755 8.16498 5.90969 8.15195 5.51695 8.12646C5.28858 7.79307 5.06765 7.44343 4.85838 7.08193C4.64965 6.72142 4.4576 6.35786 4.28353 5.99634C4.45755 5.63398 4.64915 5.27002 4.85667 4.91015L4.85662 4.91022C5.0647 4.5494 5.28369 4.20145 5.50995 3.87015C5.91065 3.83986 6.32155 3.82406 6.73682 3.82406C7.15395 3.82406 7.56541 3.83998 7.96599 3.87054C8.1888 4.19942 8.4063 4.54623 8.61519 4.90711C8.82646 5.27203 9.02053 5.63357 9.19603 5.98816C9.02105 6.34884 8.82741 6.71403 8.61708 7.07879ZM9.80446 0.651206C10.2556 0.911398 10.4311 1.96075 10.1476 3.33677C10.1295 3.42457 10.1092 3.51401 10.0871 3.60464C9.52808 3.47566 8.92107 3.37968 8.28554 3.32006C7.91532 2.79284 7.53166 2.31354 7.14657 1.89858C7.2501 1.79898 7.35349 1.70401 7.45645 1.61439C8.45117 0.748721 9.38087 0.40694 9.80446 0.651206ZM6.73684 4.77937C7.40131 4.77937 7.94 5.31803 7.94 5.98253C7.94 6.647 7.40131 7.18568 6.73684 7.18568C6.07237 7.18568 5.53369 6.647 5.53369 5.98253C5.53369 5.31803 6.07237 4.77937 6.73684 4.77937Z" fill="white"/>
</g>
<defs>
<clipPath id="clip0_343_162">
<rect width="13.4737" height="12" fill="white"/>
</clipPath>
</defs>
</svg>
