<svg width="12" height="12" viewBox="0 0 12 12" fill="none" xmlns="http://www.w3.org/2000/svg">
<path d="M9.79121 6.58955C9.46148 6.58998 9.13615 6.66538 8.83984 6.81005C8.74707 6.65609 8.67542 6.49036 8.62684 6.3173C8.59893 6.18164 8.59247 6.04245 8.60772 5.9048C8.63977 5.75333 8.68135 5.60403 8.73221 5.4578C8.73034 5.43867 8.70934 5.3483 8.49822 5.3453C8.28709 5.3423 8.10522 5.38542 8.08572 5.4413C8.04905 5.54335 8.0196 5.64786 7.99759 5.75405C7.82286 6.18511 7.60778 6.5987 7.35522 6.9893C7.21371 6.75732 7.15551 6.48405 7.19022 6.21455C7.22227 6.06308 7.26385 5.91378 7.31472 5.76755C7.31284 5.74842 7.29184 5.65805 7.08072 5.65505C6.86959 5.65205 6.68771 5.69517 6.66821 5.75105C6.64872 5.80692 6.62397 5.93855 6.58009 6.0638C6.53622 6.18905 6.02396 7.33355 5.88972 7.62867C5.82071 7.77867 5.76109 7.90092 5.71909 7.98342C5.7171 7.98878 5.71459 7.99393 5.71159 7.9988C5.67409 8.06967 5.65421 8.1083 5.65421 8.1083V8.11017C5.62534 8.16192 5.59459 8.20992 5.57922 8.20992C5.5524 8.10278 5.55369 7.99054 5.58296 7.88405C5.65796 7.48692 5.84171 6.86967 5.83984 6.8483C5.83984 6.83667 5.87434 6.72942 5.72096 6.67392C5.68539 6.65699 5.64545 6.65151 5.60663 6.65823C5.56781 6.66494 5.53203 6.68353 5.50422 6.71142C5.49072 6.71142 5.48134 6.74405 5.48134 6.74405C5.48134 6.74405 5.64821 6.04992 5.16296 6.04992C4.974 6.08793 4.79454 6.16335 4.63515 6.27173C4.47576 6.38012 4.33966 6.51929 4.23484 6.68105C4.10434 6.75192 3.82647 6.90342 3.52909 7.06655C3.41659 7.12992 3.29884 7.1933 3.18971 7.25405C3.18221 7.24655 3.17434 7.2368 3.16684 7.2293C2.57621 6.60005 1.49059 6.15605 1.53746 5.31417C1.55471 5.00742 1.66009 4.20192 3.62209 3.22355C5.23684 2.4278 6.52197 2.6483 6.74434 3.1373C7.06272 3.83555 6.05584 5.13192 4.38747 5.3198C4.20289 5.35724 4.01226 5.35272 3.82967 5.30657C3.64708 5.26042 3.4772 5.17382 3.33259 5.05317C3.24446 4.95717 3.23097 4.95155 3.19834 4.97067C3.14472 4.99955 3.17921 5.0858 3.19834 5.13567C3.26199 5.25085 3.34807 5.35211 3.45151 5.43346C3.55495 5.51481 3.67365 5.5746 3.80059 5.6093C4.45693 5.75113 5.14123 5.68332 5.75697 5.41542C6.76946 5.0243 7.55696 3.9368 7.32596 3.02592C7.09384 2.10155 5.55972 1.79667 4.10772 2.31342C3.19825 2.61945 2.3579 3.10149 1.63459 3.73205C0.834715 4.48017 0.70834 5.13005 0.76009 5.40267C0.94759 6.36942 2.27921 6.9983 2.81209 7.46517C2.78509 7.48055 2.76034 7.49405 2.73934 7.5053C2.47271 7.63767 1.45646 8.16905 1.20184 8.7308C0.914215 9.3683 1.24796 9.82392 1.46846 9.88542C1.80072 9.96495 2.14951 9.93876 2.46616 9.81049C2.7828 9.68221 3.05149 9.45827 3.23471 9.16992C3.39074 8.93075 3.48664 8.65741 3.51426 8.37319C3.54188 8.08897 3.5004 7.80228 3.39334 7.53755C3.39153 7.53327 3.38899 7.52933 3.38584 7.52592L3.59472 7.4033C3.73084 7.32267 3.86509 7.24805 3.98022 7.18655C3.90215 7.41172 3.85632 7.64679 3.84409 7.8848C3.81758 8.24959 3.92922 8.611 4.15684 8.8973C4.19148 8.92711 4.23168 8.94976 4.27513 8.96392C4.31858 8.97808 4.36441 8.98348 4.40997 8.9798C4.63496 8.9798 4.73809 8.7923 4.85097 8.56955C4.98897 8.2973 5.11346 7.9808 5.11346 7.9808C5.11346 7.9808 4.95821 8.83617 5.38009 8.83617C5.53346 8.83617 5.68871 8.63667 5.75809 8.53617V8.53805C5.75809 8.53805 5.76184 8.53242 5.76971 8.51892L5.79447 8.4788V8.47505C5.85596 8.3678 5.99397 8.12405 6.19909 7.71942C6.46384 7.1978 6.71884 6.54567 6.71884 6.54567C6.74343 6.68899 6.77738 6.83054 6.82047 6.96942C6.88223 7.13777 6.95527 7.30177 7.03909 7.4603C6.97759 7.54655 6.93934 7.59455 6.93934 7.59455L6.94122 7.59642C6.89134 7.66167 6.83772 7.73255 6.77809 7.80155C6.60069 7.99658 6.4361 8.20289 6.28534 8.41917C6.26294 8.4555 6.25524 8.499 6.26381 8.54081C6.27238 8.58262 6.29658 8.61959 6.33147 8.64417C6.41041 8.68525 6.50039 8.70009 6.58834 8.68655C6.72088 8.67906 6.85121 8.64927 6.97384 8.59842C7.09234 8.55672 7.20414 8.49798 7.30572 8.42405C7.41043 8.3515 7.49471 8.25324 7.55047 8.1387C7.60623 8.02417 7.63158 7.89721 7.62409 7.77005C7.6123 7.60986 7.57138 7.45317 7.50334 7.30767C7.52247 7.28067 7.54084 7.25405 7.55884 7.22705C7.77204 6.90882 7.9642 6.57698 8.13409 6.23367C8.15869 6.37699 8.19263 6.51854 8.23571 6.65742C8.28666 6.8029 8.34936 6.944 8.42321 7.0793C8.17794 7.268 7.98475 7.51604 7.86184 7.80005C7.74109 8.14917 7.83484 8.3063 8.01184 8.34267C8.10869 8.34935 8.20554 8.32951 8.29196 8.2853C8.41904 8.24353 8.53876 8.18203 8.64672 8.10305C8.76055 8.03587 8.85589 7.94144 8.92417 7.82826C8.99244 7.71508 9.0315 7.5867 9.03784 7.45467C9.02933 7.32288 8.99957 7.19334 8.94971 7.07105C9.27338 6.9446 9.62431 6.90429 9.96821 6.95405C10.881 7.0613 11.0613 7.63092 11.0268 7.87092C11.0107 7.956 10.9765 8.03664 10.9265 8.1074C10.8766 8.17816 10.8121 8.23741 10.7373 8.28117C10.674 8.3213 10.653 8.3348 10.6586 8.36367C10.6661 8.40605 10.6961 8.4038 10.7505 8.3963C10.888 8.35354 11.0094 8.27009 11.0986 8.15695C11.1878 8.04381 11.2405 7.9063 11.25 7.76255C11.2788 7.20005 10.7418 6.58317 9.79234 6.5888L9.79121 6.58955ZM2.74871 8.96255C2.44571 9.29255 2.02384 9.41705 1.84159 9.31167C1.64584 9.19917 1.72271 8.71167 2.09471 8.36217C2.31538 8.16353 2.55389 7.98565 2.80721 7.8308C2.85146 7.8038 2.91671 7.76555 2.99471 7.7183L3.01571 7.70667L3.06184 7.6778C3.1283 7.90047 3.13433 8.13681 3.0793 8.36259C3.02427 8.58836 2.91018 8.79542 2.74871 8.96255ZM4.95409 7.46255C4.84872 7.71942 4.62822 8.37755 4.49397 8.3408C4.37884 8.31005 4.30647 7.8113 4.47109 7.31855C4.55421 7.08134 4.67528 6.8592 4.82959 6.6608C4.99459 6.47667 5.17684 6.41517 5.22072 6.49017C5.18069 6.82575 5.09082 7.15348 4.95409 7.46255ZM6.77396 8.3333C6.72971 8.35617 6.68772 8.3708 6.66859 8.3603C6.65509 8.3528 6.68771 8.3228 6.68771 8.3228C6.68771 8.3228 6.91609 8.07717 7.00609 7.96617C7.05784 7.90092 7.11859 7.82442 7.18459 7.7378V7.76255C7.18459 8.0558 6.90072 8.25342 6.77434 8.33405L6.77396 8.3333ZM8.17797 8.01305C8.14534 7.99017 8.15096 7.9133 8.26046 7.67367C8.3366 7.51978 8.44297 7.3828 8.57321 7.27092C8.59318 7.32769 8.60357 7.38737 8.60396 7.44755C8.60544 7.57562 8.56449 7.70059 8.4875 7.80295C8.41051 7.90531 8.3018 7.97932 8.17834 8.01342L8.17797 8.01305Z" fill="white"/>
</svg>
