<svg width="12" height="12" viewBox="0 0 12 12" fill="none" xmlns="http://www.w3.org/2000/svg">
<path d="M3.375 5.13748C3.725 3.73748 4.6 3.03748 6 3.03748C8.1 3.03748 8.3625 4.61248 9.4125 4.87498C10.1125 5.04998 10.725 4.78748 11.25 4.08748C10.9 5.48748 10.025 6.18748 8.625 6.18748C6.525 6.18748 6.2625 4.61248 5.2125 4.34998C4.5125 4.17498 3.9 4.43748 3.375 5.13748ZM0.75 8.28748C1.1 6.88748 1.975 6.18748 3.375 6.18748C5.475 6.18748 5.7375 7.76248 6.7875 8.02498C7.4875 8.19998 8.1 7.93748 8.625 7.23748C8.275 8.63748 7.4 9.33748 6 9.33748C3.9 9.33748 3.6375 7.76248 2.5875 7.49998C1.8875 7.32498 1.275 7.58748 0.75 8.28748Z" fill="white"/>
</svg>
