<svg width="12" height="12" viewBox="0 0 12 12" fill="none" xmlns="http://www.w3.org/2000/svg">
<path d="M8.93534 3.09111C9.25457 3.16537 9.54464 3.33253 9.76897 3.57148C9.89253 3.70081 9.99983 3.84475 10.0885 4.00011C10.0926 4.01698 9.51322 4.40623 9.16184 4.62336C9.14909 4.63198 9.09847 4.57686 9.04109 4.49211C8.9769 4.38177 8.88579 4.28951 8.77628 4.22393C8.66676 4.15835 8.54241 4.1216 8.41484 4.11711C8.01097 4.08936 7.75072 4.30086 7.75259 4.65448C7.7491 4.74136 7.76891 4.82759 7.80997 4.90423C7.89884 5.08798 8.06384 5.19823 8.58209 5.42286C9.53609 5.83348 9.94559 6.10423 10.1983 6.48898C10.3412 6.73208 10.4292 7.00348 10.4561 7.28416C10.4831 7.56484 10.4483 7.84802 10.3543 8.11386C10.2251 8.40539 10.0203 8.65704 9.76099 8.84267C9.5017 9.02829 9.19746 9.14114 8.87984 9.16948C8.54222 9.20821 8.20109 9.20468 7.86434 9.15898C7.34853 9.07423 6.87336 8.82666 6.50834 8.45248C6.37042 8.29718 6.25365 8.1243 6.16109 7.93836C6.20001 7.90941 6.241 7.88334 6.28372 7.86036C6.34297 7.82661 6.56722 7.69761 6.77872 7.57498L7.16272 7.34998L7.24297 7.46698C7.37813 7.66027 7.55018 7.82493 7.74922 7.95148C7.95023 8.06174 8.17792 8.11399 8.40689 8.1024C8.63586 8.09081 8.85711 8.01584 9.04597 7.88586C9.14338 7.79091 9.20428 7.6647 9.21799 7.52936C9.23171 7.39402 9.19736 7.25817 9.12097 7.14561C9.01747 6.99748 8.80597 6.87298 8.20484 6.61236C7.73349 6.45342 7.30416 6.18998 6.94897 5.84173C6.77981 5.64897 6.65489 5.42152 6.58297 5.17536C6.52978 4.89493 6.52193 4.60778 6.55972 4.32486C6.63028 3.9993 6.79923 3.7033 7.04366 3.47698C7.2881 3.25066 7.5962 3.10495 7.92622 3.05961C8.26227 3.01945 8.60245 3.03007 8.93534 3.09111ZM5.80672 3.64723L5.81084 4.19248H4.07459V9.12298H2.85022V4.19361H1.11397V3.65811C1.10935 3.47472 1.11436 3.29122 1.12897 3.10836C1.13534 3.09973 2.19097 3.09561 3.47084 3.09786L5.79997 3.10423L5.80672 3.64723Z" fill="white"/>
</svg>
